<?xml version="1.0" encoding="utf-8" standalone="no"?>
<!DOCTYPE svg PUBLIC "-//W3C//DTD SVG 1.1//EN"
  "http://www.w3.org/Graphics/SVG/1.1/DTD/svg11.dtd">
<svg height="288pt" version="1.1" viewBox="0 0 1152 288" width="1152pt" xmlns="http://www.w3.org/2000/svg" xmlns:xlink="http://www.w3.org/1999/xlink">
 <metadata>
  <rdf:RDF xmlns:cc="http://creativecommons.org/ns#" xmlns:dc="http://purl.org/dc/elements/1.1/" xmlns:rdf="http://www.w3.org/1999/02/22-rdf-syntax-ns#">
   <cc:Work>
    <dc:type rdf:resource="http://purl.org/dc/dcmitype/StillImage"/>
    <dc:date>2021-12-07T14:38:48.114861</dc:date>
    <dc:format>image/svg+xml</dc:format>
    <dc:creator>
     <cc:Agent>
      <dc:title>Matplotlib v3.4.3, https://matplotlib.org/</dc:title>
     </cc:Agent>
    </dc:creator>
   </cc:Work>
  </rdf:RDF>
 </metadata>
 <defs>
  <style type="text/css">*{stroke-linecap:butt;stroke-linejoin:round;}</style>
 </defs>
 <g id="figure_1">
  <g id="patch_1">
   <path d="M 0 288 
L 1152 288 
L 1152 0 
L 0 0 
z
" style="fill:#ffffff;"/>
  </g>
  <g id="axes_1">
   <g id="patch_2">
    <path d="M 43.25 238.343237 
L 1141.2 238.343237 
L 1141.2 55.222226 
L 43.25 55.222226 
z
" style="fill:#ffffff;"/>
   </g>
   <g id="PathCollection_1">
    <defs>
     <path d="M 0 1.414214 
C 0.375054 1.414214 0.734797 1.265203 1 1 
C 1.265203 0.734797 1.414214 0.375054 1.414214 -0 
C 1.414214 -0.375054 1.265203 -0.734797 1 -1 
C 0.734797 -1.265203 0.375054 -1.414214 0 -1.414214 
C -0.375054 -1.414214 -0.734797 -1.265203 -1 -1 
C -1.265203 -0.734797 -1.414214 -0.375054 -1.414214 0 
C -1.414214 0.375054 -1.265203 0.734797 -1 1 
C -0.734797 1.265203 -0.375054 1.414214 0 1.414214 
z
" id="C0_0_d0c7b75d01"/>
    </defs>
    <g clip-path="url(#pbbf21c2466)">
     <use style="fill:#008000;stroke:#008000;" x="164.396754" xlink:href="#C0_0_d0c7b75d01" y="86.099355"/>
    </g>
    <g clip-path="url(#pbbf21c2466)">
     <use style="fill:#008000;stroke:#008000;" x="165.586428" xlink:href="#C0_0_d0c7b75d01" y="85.742395"/>
    </g>
   </g>
   <g id="matplotlib.axis_1">
    <g id="xtick_1">
     <g id="line2d_1">
      <defs>
       <path d="M 0 0 
L 0 3.5 
" id="m47edb85a44" style="stroke:#000000;stroke-width:0.8;"/>
      </defs>
      <g>
       <use style="stroke:#000000;stroke-width:0.8;" x="93.156818" xlink:href="#m47edb85a44" y="238.343237"/>
      </g>
     </g>
     <g id="text_1">
      <!-- 0 -->
      <g transform="translate(89.975568 252.941675)scale(0.1 -0.1)">
       <defs>
        <path d="M 2034 4250 
Q 1547 4250 1301 3770 
Q 1056 3291 1056 2328 
Q 1056 1369 1301 889 
Q 1547 409 2034 409 
Q 2525 409 2770 889 
Q 3016 1369 3016 2328 
Q 3016 3291 2770 3770 
Q 2525 4250 2034 4250 
z
M 2034 4750 
Q 2819 4750 3233 4129 
Q 3647 3509 3647 2328 
Q 3647 1150 3233 529 
Q 2819 -91 2034 -91 
Q 1250 -91 836 529 
Q 422 1150 422 2328 
Q 422 3509 836 4129 
Q 1250 4750 2034 4750 
z
" id="DejaVuSans-30" transform="scale(0.015625)"/>
       </defs>
       <use xlink:href="#DejaVuSans-30"/>
      </g>
     </g>
    </g>
    <g id="xtick_2">
     <g id="line2d_2">
      <g>
       <use style="stroke:#000000;stroke-width:0.8;" x="331.091589" xlink:href="#m47edb85a44" y="238.343237"/>
      </g>
     </g>
     <g id="text_2">
      <!-- 200 -->
      <g transform="translate(321.547839 252.941675)scale(0.1 -0.1)">
       <defs>
        <path d="M 1228 531 
L 3431 531 
L 3431 0 
L 469 0 
L 469 531 
Q 828 903 1448 1529 
Q 2069 2156 2228 2338 
Q 2531 2678 2651 2914 
Q 2772 3150 2772 3378 
Q 2772 3750 2511 3984 
Q 2250 4219 1831 4219 
Q 1534 4219 1204 4116 
Q 875 4013 500 3803 
L 500 4441 
Q 881 4594 1212 4672 
Q 1544 4750 1819 4750 
Q 2544 4750 2975 4387 
Q 3406 4025 3406 3419 
Q 3406 3131 3298 2873 
Q 3191 2616 2906 2266 
Q 2828 2175 2409 1742 
Q 1991 1309 1228 531 
z
" id="DejaVuSans-32" transform="scale(0.015625)"/>
       </defs>
       <use xlink:href="#DejaVuSans-32"/>
       <use x="63.623047" xlink:href="#DejaVuSans-30"/>
       <use x="127.246094" xlink:href="#DejaVuSans-30"/>
      </g>
     </g>
    </g>
    <g id="xtick_3">
     <g id="line2d_3">
      <g>
       <use style="stroke:#000000;stroke-width:0.8;" x="569.02636" xlink:href="#m47edb85a44" y="238.343237"/>
      </g>
     </g>
     <g id="text_3">
      <!-- 400 -->
      <g transform="translate(559.48261 252.941675)scale(0.1 -0.1)">
       <defs>
        <path d="M 2419 4116 
L 825 1625 
L 2419 1625 
L 2419 4116 
z
M 2253 4666 
L 3047 4666 
L 3047 1625 
L 3713 1625 
L 3713 1100 
L 3047 1100 
L 3047 0 
L 2419 0 
L 2419 1100 
L 313 1100 
L 313 1709 
L 2253 4666 
z
" id="DejaVuSans-34" transform="scale(0.015625)"/>
       </defs>
       <use xlink:href="#DejaVuSans-34"/>
       <use x="63.623047" xlink:href="#DejaVuSans-30"/>
       <use x="127.246094" xlink:href="#DejaVuSans-30"/>
      </g>
     </g>
    </g>
    <g id="xtick_4">
     <g id="line2d_4">
      <g>
       <use style="stroke:#000000;stroke-width:0.8;" x="806.961131" xlink:href="#m47edb85a44" y="238.343237"/>
      </g>
     </g>
     <g id="text_4">
      <!-- 600 -->
      <g transform="translate(797.417381 252.941675)scale(0.1 -0.1)">
       <defs>
        <path d="M 2113 2584 
Q 1688 2584 1439 2293 
Q 1191 2003 1191 1497 
Q 1191 994 1439 701 
Q 1688 409 2113 409 
Q 2538 409 2786 701 
Q 3034 994 3034 1497 
Q 3034 2003 2786 2293 
Q 2538 2584 2113 2584 
z
M 3366 4563 
L 3366 3988 
Q 3128 4100 2886 4159 
Q 2644 4219 2406 4219 
Q 1781 4219 1451 3797 
Q 1122 3375 1075 2522 
Q 1259 2794 1537 2939 
Q 1816 3084 2150 3084 
Q 2853 3084 3261 2657 
Q 3669 2231 3669 1497 
Q 3669 778 3244 343 
Q 2819 -91 2113 -91 
Q 1303 -91 875 529 
Q 447 1150 447 2328 
Q 447 3434 972 4092 
Q 1497 4750 2381 4750 
Q 2619 4750 2861 4703 
Q 3103 4656 3366 4563 
z
" id="DejaVuSans-36" transform="scale(0.015625)"/>
       </defs>
       <use xlink:href="#DejaVuSans-36"/>
       <use x="63.623047" xlink:href="#DejaVuSans-30"/>
       <use x="127.246094" xlink:href="#DejaVuSans-30"/>
      </g>
     </g>
    </g>
    <g id="xtick_5">
     <g id="line2d_5">
      <g>
       <use style="stroke:#000000;stroke-width:0.8;" x="1044.895902" xlink:href="#m47edb85a44" y="238.343237"/>
      </g>
     </g>
     <g id="text_5">
      <!-- 800 -->
      <g transform="translate(1035.352152 252.941675)scale(0.1 -0.1)">
       <defs>
        <path d="M 2034 2216 
Q 1584 2216 1326 1975 
Q 1069 1734 1069 1313 
Q 1069 891 1326 650 
Q 1584 409 2034 409 
Q 2484 409 2743 651 
Q 3003 894 3003 1313 
Q 3003 1734 2745 1975 
Q 2488 2216 2034 2216 
z
M 1403 2484 
Q 997 2584 770 2862 
Q 544 3141 544 3541 
Q 544 4100 942 4425 
Q 1341 4750 2034 4750 
Q 2731 4750 3128 4425 
Q 3525 4100 3525 3541 
Q 3525 3141 3298 2862 
Q 3072 2584 2669 2484 
Q 3125 2378 3379 2068 
Q 3634 1759 3634 1313 
Q 3634 634 3220 271 
Q 2806 -91 2034 -91 
Q 1263 -91 848 271 
Q 434 634 434 1313 
Q 434 1759 690 2068 
Q 947 2378 1403 2484 
z
M 1172 3481 
Q 1172 3119 1398 2916 
Q 1625 2713 2034 2713 
Q 2441 2713 2670 2916 
Q 2900 3119 2900 3481 
Q 2900 3844 2670 4047 
Q 2441 4250 2034 4250 
Q 1625 4250 1398 4047 
Q 1172 3844 1172 3481 
z
" id="DejaVuSans-38" transform="scale(0.015625)"/>
       </defs>
       <use xlink:href="#DejaVuSans-38"/>
       <use x="63.623047" xlink:href="#DejaVuSans-30"/>
       <use x="127.246094" xlink:href="#DejaVuSans-30"/>
      </g>
     </g>
    </g>
   </g>
   <g id="matplotlib.axis_2">
    <g id="ytick_1">
     <g id="line2d_6">
      <defs>
       <path d="M 0 0 
L -3.5 0 
" id="m389c7e7bb4" style="stroke:#000000;stroke-width:0.8;"/>
      </defs>
      <g>
       <use style="stroke:#000000;stroke-width:0.8;" x="43.25" xlink:href="#m389c7e7bb4" y="222.546093"/>
      </g>
     </g>
     <g id="text_6">
      <!-- 1100 -->
      <g transform="translate(10.8 226.345311)scale(0.1 -0.1)">
       <defs>
        <path d="M 794 531 
L 1825 531 
L 1825 4091 
L 703 3866 
L 703 4441 
L 1819 4666 
L 2450 4666 
L 2450 531 
L 3481 531 
L 3481 0 
L 794 0 
L 794 531 
z
" id="DejaVuSans-31" transform="scale(0.015625)"/>
       </defs>
       <use xlink:href="#DejaVuSans-31"/>
       <use x="63.623047" xlink:href="#DejaVuSans-31"/>
       <use x="127.246094" xlink:href="#DejaVuSans-30"/>
       <use x="190.869141" xlink:href="#DejaVuSans-30"/>
      </g>
     </g>
    </g>
    <g id="ytick_2">
     <g id="line2d_7">
      <g>
       <use style="stroke:#000000;stroke-width:0.8;" x="43.25" xlink:href="#m389c7e7bb4" y="198.752616"/>
      </g>
     </g>
     <g id="text_7">
      <!-- 1120 -->
      <g transform="translate(10.8 202.551834)scale(0.1 -0.1)">
       <use xlink:href="#DejaVuSans-31"/>
       <use x="63.623047" xlink:href="#DejaVuSans-31"/>
       <use x="127.246094" xlink:href="#DejaVuSans-32"/>
       <use x="190.869141" xlink:href="#DejaVuSans-30"/>
      </g>
     </g>
    </g>
    <g id="ytick_3">
     <g id="line2d_8">
      <g>
       <use style="stroke:#000000;stroke-width:0.8;" x="43.25" xlink:href="#m389c7e7bb4" y="174.959138"/>
      </g>
     </g>
     <g id="text_8">
      <!-- 1140 -->
      <g transform="translate(10.8 178.758357)scale(0.1 -0.1)">
       <use xlink:href="#DejaVuSans-31"/>
       <use x="63.623047" xlink:href="#DejaVuSans-31"/>
       <use x="127.246094" xlink:href="#DejaVuSans-34"/>
       <use x="190.869141" xlink:href="#DejaVuSans-30"/>
      </g>
     </g>
    </g>
    <g id="ytick_4">
     <g id="line2d_9">
      <g>
       <use style="stroke:#000000;stroke-width:0.8;" x="43.25" xlink:href="#m389c7e7bb4" y="151.165661"/>
      </g>
     </g>
     <g id="text_9">
      <!-- 1160 -->
      <g transform="translate(10.8 154.96488)scale(0.1 -0.1)">
       <use xlink:href="#DejaVuSans-31"/>
       <use x="63.623047" xlink:href="#DejaVuSans-31"/>
       <use x="127.246094" xlink:href="#DejaVuSans-36"/>
       <use x="190.869141" xlink:href="#DejaVuSans-30"/>
      </g>
     </g>
    </g>
    <g id="ytick_5">
     <g id="line2d_10">
      <g>
       <use style="stroke:#000000;stroke-width:0.8;" x="43.25" xlink:href="#m389c7e7bb4" y="127.372184"/>
      </g>
     </g>
     <g id="text_10">
      <!-- 1180 -->
      <g transform="translate(10.8 131.171403)scale(0.1 -0.1)">
       <use xlink:href="#DejaVuSans-31"/>
       <use x="63.623047" xlink:href="#DejaVuSans-31"/>
       <use x="127.246094" xlink:href="#DejaVuSans-38"/>
       <use x="190.869141" xlink:href="#DejaVuSans-30"/>
      </g>
     </g>
    </g>
    <g id="ytick_6">
     <g id="line2d_11">
      <g>
       <use style="stroke:#000000;stroke-width:0.8;" x="43.25" xlink:href="#m389c7e7bb4" y="103.578707"/>
      </g>
     </g>
     <g id="text_11">
      <!-- 1200 -->
      <g transform="translate(10.8 107.377926)scale(0.1 -0.1)">
       <use xlink:href="#DejaVuSans-31"/>
       <use x="63.623047" xlink:href="#DejaVuSans-32"/>
       <use x="127.246094" xlink:href="#DejaVuSans-30"/>
       <use x="190.869141" xlink:href="#DejaVuSans-30"/>
      </g>
     </g>
    </g>
    <g id="ytick_7">
     <g id="line2d_12">
      <g>
       <use style="stroke:#000000;stroke-width:0.8;" x="43.25" xlink:href="#m389c7e7bb4" y="79.78523"/>
      </g>
     </g>
     <g id="text_12">
      <!-- 1220 -->
      <g transform="translate(10.8 83.584449)scale(0.1 -0.1)">
       <use xlink:href="#DejaVuSans-31"/>
       <use x="63.623047" xlink:href="#DejaVuSans-32"/>
       <use x="127.246094" xlink:href="#DejaVuSans-32"/>
       <use x="190.869141" xlink:href="#DejaVuSans-30"/>
      </g>
     </g>
    </g>
    <g id="ytick_8">
     <g id="line2d_13">
      <g>
       <use style="stroke:#000000;stroke-width:0.8;" x="43.25" xlink:href="#m389c7e7bb4" y="55.991753"/>
      </g>
     </g>
     <g id="text_13">
      <!-- 1240 -->
      <g transform="translate(10.8 59.790972)scale(0.1 -0.1)">
       <use xlink:href="#DejaVuSans-31"/>
       <use x="63.623047" xlink:href="#DejaVuSans-32"/>
       <use x="127.246094" xlink:href="#DejaVuSans-34"/>
       <use x="190.869141" xlink:href="#DejaVuSans-30"/>
      </g>
     </g>
    </g>
   </g>
   <g id="LineCollection_1">
    <path clip-path="url(#pbbf21c2466)" d="M 164.396754 86.099355 
L 95.536166 211.957966 
" style="fill:none;stroke:#1f77b4;stroke-width:0.1;"/>
    <path clip-path="url(#pbbf21c2466)" d="M 164.396754 86.099355 
L 171.675293 192.685308 
" style="fill:none;stroke:#1f77b4;stroke-width:0.1;"/>
    <path clip-path="url(#pbbf21c2466)" d="M 165.586428 85.742395 
L 96.72584 211.72009 
" style="fill:none;stroke:#1f77b4;stroke-width:0.1;"/>
    <path clip-path="url(#pbbf21c2466)" d="M 165.586428 85.742395 
L 172.864966 192.328348 
" style="fill:none;stroke:#1f77b4;stroke-width:0.1;"/>
   </g>
   <g id="LineCollection_2">
    <path clip-path="url(#pbbf21c2466)" d="M 164.396754 86.099355 
L 165.365547 103.918146 
" style="fill:none;stroke:#000000;stroke-width:0.1;"/>
    <path clip-path="url(#pbbf21c2466)" d="M 164.396754 86.099355 
L 154.64836 101.046484 
" style="fill:none;stroke:#000000;stroke-width:0.1;"/>
    <path clip-path="url(#pbbf21c2466)" d="M 165.586428 85.742395 
L 166.55522 103.561186 
" style="fill:none;stroke:#000000;stroke-width:0.1;"/>
    <path clip-path="url(#pbbf21c2466)" d="M 165.586428 85.742395 
L 155.838034 100.689524 
" style="fill:none;stroke:#000000;stroke-width:0.1;"/>
   </g>
   <g id="LineCollection_3">
    <path clip-path="url(#pbbf21c2466)" d="M 95.536166 211.400576 
L 96.72584 211.097986 
L 171.675293 192.034776 
L 172.864966 191.732185 
" style="fill:none;stroke:#ff0000;stroke-width:0.5;"/>
    <path clip-path="url(#pbbf21c2466)" d="M 94.346492 133.54508 
L 134.795403 136.544851 
L 172.864966 139.368164 
L 213.313877 142.367935 
" style="fill:none;stroke:#ff0000;stroke-width:0.5;"/>
    <path clip-path="url(#pbbf21c2466)" d="M 95.536166 135.889666 
L 135.985077 145.114414 
L 171.675293 153.253898 
L 214.503551 163.021279 
" style="fill:none;stroke:#ff0000;stroke-width:0.5;"/>
    <path clip-path="url(#pbbf21c2466)" d="M 95.536166 209.513979 
L 143.12312 200.563979 
L 171.675293 195.19398 
L 221.641594 185.79648 
" style="fill:none;stroke:#ff0000;stroke-width:0.5;"/>
    <path clip-path="url(#pbbf21c2466)" d="M 94.346492 177.983579 
L 146.692142 182.685776 
L 172.864966 185.036875 
L 225.210616 189.739072 
" style="fill:none;stroke:#ff0000;stroke-width:0.5;"/>
    <path clip-path="url(#pbbf21c2466)" d="M 94.346492 247.103138 
L 149.071489 238.434943 
L 172.864966 234.666162 
L 227.589964 225.997967 
" style="fill:none;stroke:#ff0000;stroke-width:0.5;"/>
    <path clip-path="url(#pbbf21c2466)" d="M 95.536166 93.011477 
L 153.830185 113.196021 
L 171.675293 119.374963 
L 227.589964 138.735648 
" style="fill:none;stroke:#ff0000;stroke-width:0.5;"/>
    <path clip-path="url(#pbbf21c2466)" d="M 134.795403 135.018907 
L 176.433988 139.561943 
L 213.313877 143.585775 
L 254.952462 148.128811 
" style="fill:none;stroke:#ff0000;stroke-width:0.5;"/>
    <path clip-path="url(#pbbf21c2466)" d="M 135.985077 148.976857 
L 177.623662 154.095331 
L 214.503551 158.628837 
L 256.142136 163.747312 
" style="fill:none;stroke:#ff0000;stroke-width:0.5;"/>
    <path clip-path="url(#pbbf21c2466)" d="M 143.12312 199.086086 
L 193.089422 191.525323 
L 221.641594 187.204888 
L 271.607896 179.644125 
" style="fill:none;stroke:#ff0000;stroke-width:0.5;"/>
    <path clip-path="url(#pbbf21c2466)" d="M 146.692142 183.310889 
L 199.037791 187.040313 
L 225.210616 188.905026 
L 277.556266 192.63445 
" style="fill:none;stroke:#ff0000;stroke-width:0.5;"/>
    <path clip-path="url(#pbbf21c2466)" d="M 149.071489 112.418757 
L 203.796487 117.200421 
L 227.589964 119.279405 
L 282.314961 124.061069 
" style="fill:none;stroke:#ff0000;stroke-width:0.5;"/>
    <path clip-path="url(#pbbf21c2466)" d="M 149.071489 238.366541 
L 204.98616 229.350503 
L 227.589964 225.705721 
L 283.504635 216.689682 
" style="fill:none;stroke:#ff0000;stroke-width:0.5;"/>
    <path clip-path="url(#pbbf21c2466)" d="M 153.830185 114.586069 
L 209.744856 131.787199 
L 227.589964 137.276921 
L 285.883983 155.210014 
" style="fill:none;stroke:#ff0000;stroke-width:0.5;"/>
    <path clip-path="url(#pbbf21c2466)" d="M 176.433988 139.3358 
L 216.882899 143.955005 
L 254.952462 148.302492 
L 295.401373 152.921698 
" style="fill:none;stroke:#ff0000;stroke-width:0.5;"/>
    <path clip-path="url(#pbbf21c2466)" d="M 177.623662 157.265603 
L 219.262247 159.376671 
L 256.142136 161.246474 
L 297.780721 163.357542 
" style="fill:none;stroke:#ff0000;stroke-width:0.5;"/>
    <path clip-path="url(#pbbf21c2466)" d="M 193.089422 191.445267 
L 241.86605 184.025521 
L 271.607896 179.501286 
L 320.384524 172.08154 
" style="fill:none;stroke:#ff0000;stroke-width:0.5;"/>
    <path clip-path="url(#pbbf21c2466)" d="M 199.037791 187.584553 
L 251.383441 190.744263 
L 277.556266 192.324118 
L 329.901915 195.483828 
" style="fill:none;stroke:#ff0000;stroke-width:0.5;"/>
    <path clip-path="url(#pbbf21c2466)" d="M 216.882899 145.571248 
L 258.521484 148.331249 
L 295.401373 150.775822 
L 337.039958 153.535823 
" style="fill:none;stroke:#ff0000;stroke-width:0.5;"/>
    <path clip-path="url(#pbbf21c2466)" d="M 204.98616 231.545006 
L 262.090505 219.397223 
L 283.504635 214.841805 
L 338.229632 203.20018 
" style="fill:none;stroke:#ff0000;stroke-width:0.5;"/>
    <path clip-path="url(#pbbf21c2466)" d="M 219.262247 160.846475 
L 262.090505 161.071595 
L 297.780721 161.259194 
L 340.60898 161.484313 
" style="fill:none;stroke:#ff0000;stroke-width:0.5;"/>
    <path clip-path="url(#pbbf21c2466)" d="M 209.744856 133.472625 
L 266.849201 148.722636 
L 285.883983 153.805973 
L 342.988328 169.055984 
" style="fill:none;stroke:#ff0000;stroke-width:0.5;"/>
    <path clip-path="url(#pbbf21c2466)" d="M 241.86605 184.313874 
L 291.832352 176.418263 
L 320.384524 171.906485 
L 370.350826 164.010873 
" style="fill:none;stroke:#ff0000;stroke-width:0.5;"/>
    <path clip-path="url(#pbbf21c2466)" d="M 258.521484 151.127621 
L 298.970395 151.078196 
L 337.039958 151.031679 
L 377.488869 150.982254 
" style="fill:none;stroke:#ff0000;stroke-width:0.5;"/>
    <path clip-path="url(#pbbf21c2466)" d="M 251.383441 190.711388 
L 303.72909 193.785847 
L 329.901915 195.323077 
L 382.247565 198.397536 
" style="fill:none;stroke:#ff0000;stroke-width:0.5;"/>
    <path clip-path="url(#pbbf21c2466)" d="M 258.521484 121.813364 
L 313.246481 125.755236 
L 337.039958 127.469094 
L 391.764956 131.410965 
" style="fill:none;stroke:#ff0000;stroke-width:0.5;"/>
    <path clip-path="url(#pbbf21c2466)" d="M 262.090505 219.927742 
L 318.005177 207.280381 
L 338.229632 202.705803 
L 394.144303 190.058442 
" style="fill:none;stroke:#ff0000;stroke-width:0.5;"/>
    <path clip-path="url(#pbbf21c2466)" d="M 266.849201 151.866126 
L 323.953546 161.656437 
L 342.988328 164.919874 
L 402.47202 175.118114 
" style="fill:none;stroke:#ff0000;stroke-width:0.5;"/>
    <path clip-path="url(#pbbf21c2466)" d="M 298.970395 152.820101 
L 340.60898 150.92007 
L 377.488869 149.237186 
L 419.127454 147.337155 
" style="fill:none;stroke:#ff0000;stroke-width:0.5;"/>
    <path clip-path="url(#pbbf21c2466)" d="M 303.72909 161.478961 
L 346.557349 158.61528 
L 382.247565 156.22888 
L 425.075823 153.365199 
" style="fill:none;stroke:#ff0000;stroke-width:0.5;"/>
    <path clip-path="url(#pbbf21c2466)" d="M 303.72909 194.955767 
L 356.07474 196.501333 
L 382.247565 197.274115 
L 434.593214 198.819681 
" style="fill:none;stroke:#ff0000;stroke-width:0.5;"/>
    <path clip-path="url(#pbbf21c2466)" d="M 313.246481 124.371428 
L 367.971478 130.316924 
L 391.764956 132.901922 
L 446.489953 138.847418 
" style="fill:none;stroke:#ff0000;stroke-width:0.5;"/>
    <path clip-path="url(#pbbf21c2466)" d="M 318.005177 208.491173 
L 372.730174 194.397712 
L 394.144303 188.882879 
L 448.869301 174.789417 
" style="fill:none;stroke:#ff0000;stroke-width:0.5;"/>
    <path clip-path="url(#pbbf21c2466)" d="M 323.953546 165.377387 
L 381.057891 170.263539 
L 402.47202 172.095846 
L 459.576365 176.981998 
" style="fill:none;stroke:#ff0000;stroke-width:0.5;"/>
    <path clip-path="url(#pbbf21c2466)" d="M 340.60898 152.039494 
L 382.247565 149.051634 
L 419.127454 146.405244 
L 460.766039 143.417384 
" style="fill:none;stroke:#ff0000;stroke-width:0.5;"/>
    <path clip-path="url(#pbbf21c2466)" d="M 346.557349 156.834393 
L 388.195934 155.75051 
L 425.075823 154.7905 
L 466.714408 153.706617 
" style="fill:none;stroke:#ff0000;stroke-width:0.5;"/>
    <path clip-path="url(#pbbf21c2466)" d="M 340.60898 170.700402 
L 391.764956 160.746441 
L 419.127454 155.422229 
L 467.904082 145.931244 
" style="fill:none;stroke:#ff0000;stroke-width:0.5;"/>
    <path clip-path="url(#pbbf21c2466)" d="M 356.07474 198.383582 
L 408.42039 197.293215 
L 434.593214 196.748032 
L 486.938864 195.657665 
" style="fill:none;stroke:#ff0000;stroke-width:0.5;"/>
    <path clip-path="url(#pbbf21c2466)" d="M 367.971478 130.261597 
L 422.696476 136.204139 
L 446.489953 138.787854 
L 501.21495 144.730396 
" style="fill:none;stroke:#ff0000;stroke-width:0.5;"/>
    <path clip-path="url(#pbbf21c2466)" d="M 382.247565 148.217688 
L 423.88615 146.354848 
L 460.766039 144.704905 
L 502.404624 142.842065 
" style="fill:none;stroke:#ff0000;stroke-width:0.5;"/>
    <path clip-path="url(#pbbf21c2466)" d="M 372.730174 195.130117 
L 428.644845 179.692722 
L 448.869301 174.108983 
L 504.783972 158.671588 
" style="fill:none;stroke:#ff0000;stroke-width:0.5;"/>
    <path clip-path="url(#pbbf21c2466)" d="M 388.195934 155.462406 
L 431.024193 154.544734 
L 466.714408 153.780008 
L 509.542667 152.862336 
" style="fill:none;stroke:#ff0000;stroke-width:0.5;"/>
    <path clip-path="url(#pbbf21c2466)" d="M 381.057891 170.584301 
L 438.162236 175.012428 
L 459.576365 176.672976 
L 516.68071 181.101103 
" style="fill:none;stroke:#ff0000;stroke-width:0.5;"/>
    <path clip-path="url(#pbbf21c2466)" d="M 391.764956 162.850416 
L 441.731257 150.92728 
L 467.904082 144.681828 
L 517.870384 132.758692 
" style="fill:none;stroke:#ff0000;stroke-width:0.5;"/>
    <path clip-path="url(#pbbf21c2466)" d="M 408.42039 199.178305 
L 460.766039 195.642999 
L 486.938864 193.875346 
L 539.284513 190.34004 
" style="fill:none;stroke:#ff0000;stroke-width:0.5;"/>
    <path clip-path="url(#pbbf21c2466)" d="M 423.88615 144.385141 
L 464.335061 144.497657 
L 502.404624 144.603554 
L 542.853535 144.71607 
" style="fill:none;stroke:#ff0000;stroke-width:0.5;"/>
    <path clip-path="url(#pbbf21c2466)" d="M 431.024193 154.597701 
L 472.662778 153.74896 
L 509.542667 152.997217 
L 551.181252 152.148475 
" style="fill:none;stroke:#ff0000;stroke-width:0.5;"/>
    <path clip-path="url(#pbbf21c2466)" d="M 422.696476 137.739548 
L 477.421473 141.624748 
L 501.21495 143.313966 
L 555.939947 147.199167 
" style="fill:none;stroke:#ff0000;stroke-width:0.5;"/>
    <path clip-path="url(#pbbf21c2466)" d="M 428.644845 176.573046 
L 483.369842 165.68429 
L 504.783972 161.423472 
L 561.888317 150.061291 
" style="fill:none;stroke:#ff0000;stroke-width:0.5;"/>
    <path clip-path="url(#pbbf21c2466)" d="M 441.731257 147.331962 
L 490.507885 140.177782 
L 517.870384 136.164462 
L 569.02636 128.661298 
" style="fill:none;stroke:#ff0000;stroke-width:0.5;"/>
    <path clip-path="url(#pbbf21c2466)" d="M 438.162236 174.825258 
L 495.266581 179.525598 
L 516.68071 181.288226 
L 573.785055 185.988567 
" style="fill:none;stroke:#ff0000;stroke-width:0.5;"/>
    <path clip-path="url(#pbbf21c2466)" d="M 464.335061 142.619787 
L 505.973646 144.878379 
L 542.853535 146.878847 
L 584.49212 149.137439 
" style="fill:none;stroke:#ff0000;stroke-width:0.5;"/>
    <path clip-path="url(#pbbf21c2466)" d="M 460.766039 195.049896 
L 514.301363 192.464309 
L 539.284513 191.257702 
L 592.819837 188.672115 
" style="fill:none;stroke:#ff0000;stroke-width:0.5;"/>
    <path clip-path="url(#pbbf21c2466)" d="M 477.421473 142.208002 
L 533.336144 145.410913 
L 555.939947 146.705707 
L 611.854619 149.908619 
" style="fill:none;stroke:#ff0000;stroke-width:0.5;"/>
    <path clip-path="url(#pbbf21c2466)" d="M 490.507885 136.483209 
L 539.284513 133.873768 
L 569.02636 132.282646 
L 617.802988 129.673206 
" style="fill:none;stroke:#ff0000;stroke-width:0.5;"/>
    <path clip-path="url(#pbbf21c2466)" d="M 505.973646 142.544029 
L 546.422557 147.073929 
L 584.49212 151.337365 
L 624.941031 155.867265 
" style="fill:none;stroke:#ff0000;stroke-width:0.5;"/>
    <path clip-path="url(#pbbf21c2466)" d="M 495.266581 180.095294 
L 553.5606 184.019391 
L 573.785055 185.380812 
L 632.079074 189.304909 
" style="fill:none;stroke:#ff0000;stroke-width:0.5;"/>
    <path clip-path="url(#pbbf21c2466)" d="M 514.301363 151.891373 
L 555.939947 153.286431 
L 592.819837 154.522053 
L 634.458422 155.91711 
" style="fill:none;stroke:#ff0000;stroke-width:0.5;"/>
    <path clip-path="url(#pbbf21c2466)" d="M 514.301363 191.819918 
L 566.647012 189.838592 
L 592.819837 188.847929 
L 645.165487 186.866603 
" style="fill:none;stroke:#ff0000;stroke-width:0.5;"/>
    <path clip-path="url(#pbbf21c2466)" d="M 546.422557 146.176732 
L 588.061142 151.64884 
L 624.941031 156.495564 
L 666.579616 161.967671 
" style="fill:none;stroke:#ff0000;stroke-width:0.5;"/>
    <path clip-path="url(#pbbf21c2466)" d="M 539.284513 132.202234 
L 589.250815 131.514305 
L 617.802988 131.121203 
L 667.76929 130.433274 
" style="fill:none;stroke:#ff0000;stroke-width:0.5;"/>
    <path clip-path="url(#pbbf21c2466)" d="M 539.284513 154.112191 
L 594.009511 148.066557 
L 617.802988 145.438021 
L 672.527985 139.392387 
" style="fill:none;stroke:#ff0000;stroke-width:0.5;"/>
    <path clip-path="url(#pbbf21c2466)" d="M 555.939947 153.36484 
L 598.768206 154.576379 
L 634.458422 155.585995 
L 677.286681 156.797535 
" style="fill:none;stroke:#ff0000;stroke-width:0.5;"/>
    <path clip-path="url(#pbbf21c2466)" d="M 553.5606 183.684613 
L 610.664945 187.945881 
L 632.079074 189.543856 
L 689.183419 193.805123 
" style="fill:none;stroke:#ff0000;stroke-width:0.5;"/>
    <path clip-path="url(#pbbf21c2466)" d="M 566.647012 189.889342 
L 618.992662 188.374696 
L 645.165487 187.617373 
L 697.511136 186.102728 
" style="fill:none;stroke:#ff0000;stroke-width:0.5;"/>
    <path clip-path="url(#pbbf21c2466)" d="M 588.061142 151.661011 
L 628.510053 157.03588 
L 666.579616 162.09458 
L 707.028527 167.469448 
" style="fill:none;stroke:#ff0000;stroke-width:0.5;"/>
    <path clip-path="url(#pbbf21c2466)" d="M 589.250815 132.056622 
L 638.027443 130.732457 
L 667.76929 129.92504 
L 716.545918 128.600875 
" style="fill:none;stroke:#ff0000;stroke-width:0.5;"/>
    <path clip-path="url(#pbbf21c2466)" d="M 598.768206 155.910975 
L 640.406791 155.697142 
L 677.286681 155.507748 
L 718.925265 155.293916 
" style="fill:none;stroke:#ff0000;stroke-width:0.5;"/>
    <path clip-path="url(#pbbf21c2466)" d="M 594.009511 145.120502 
L 649.924182 143.272178 
L 672.527985 142.524983 
L 728.442656 140.676659 
" style="fill:none;stroke:#ff0000;stroke-width:0.5;"/>
    <path clip-path="url(#pbbf21c2466)" d="M 610.664945 186.002944 
L 667.76929 193.299314 
L 689.183419 196.035453 
L 746.287764 203.331823 
" style="fill:none;stroke:#ff0000;stroke-width:0.5;"/>
    <path clip-path="url(#pbbf21c2466)" d="M 628.510053 156.690043 
L 670.148637 162.56481 
L 707.028527 167.768176 
L 748.667112 173.642943 
" style="fill:none;stroke:#ff0000;stroke-width:0.5;"/>
    <path clip-path="url(#pbbf21c2466)" d="M 618.992662 188.448317 
L 671.338311 186.306997 
L 697.511136 185.236337 
L 749.856786 183.095017 
" style="fill:none;stroke:#ff0000;stroke-width:0.5;"/>
    <path clip-path="url(#pbbf21c2466)" d="M 640.406791 157.136865 
L 683.23505 155.356414 
L 718.925265 153.872704 
L 761.753524 152.092253 
" style="fill:none;stroke:#ff0000;stroke-width:0.5;"/>
    <path clip-path="url(#pbbf21c2466)" d="M 638.027443 132.564931 
L 687.993745 128.736997 
L 716.545918 126.549606 
L 766.51222 122.721672 
" style="fill:none;stroke:#ff0000;stroke-width:0.5;"/>
    <path clip-path="url(#pbbf21c2466)" d="M 649.924182 141.932749 
L 705.838853 141.750887 
L 728.442656 141.677368 
L 784.357327 141.495505 
" style="fill:none;stroke:#ff0000;stroke-width:0.5;"/>
    <path clip-path="url(#pbbf21c2466)" d="M 670.148637 162.254398 
L 711.787222 168.472918 
L 748.667112 173.98075 
L 790.305697 180.19927 
" style="fill:none;stroke:#ff0000;stroke-width:0.5;"/>
    <path clip-path="url(#pbbf21c2466)" d="M 667.76929 191.97322 
L 724.873635 201.025693 
L 746.287764 204.420371 
L 803.392109 213.472844 
" style="fill:none;stroke:#ff0000;stroke-width:0.5;"/>
    <path clip-path="url(#pbbf21c2466)" d="M 687.993745 130.112661 
L 736.770373 124.880242 
L 766.51222 121.689742 
L 815.288848 116.457323 
" style="fill:none;stroke:#ff0000;stroke-width:0.5;"/>
    <path clip-path="url(#pbbf21c2466)" d="M 711.787222 167.178602 
L 754.615481 175.219688 
L 790.305697 181.920593 
L 830.754608 189.514951 
" style="fill:none;stroke:#ff0000;stroke-width:0.5;"/>
    <path clip-path="url(#pbbf21c2466)" d="M 705.838853 142.298126 
L 761.753524 141.467681 
L 784.357327 141.131969 
L 840.271999 140.301524 
" style="fill:none;stroke:#ff0000;stroke-width:0.5;"/>
    <path clip-path="url(#pbbf21c2466)" d="M 724.873635 153.012255 
L 767.701893 151.473153 
L 803.392109 150.190569 
L 846.220368 148.651467 
" style="fill:none;stroke:#ff0000;stroke-width:0.5;"/>
    <path clip-path="url(#pbbf21c2466)" d="M 724.873635 189.646678 
L 779.598632 174.267538 
L 803.392109 167.580956 
L 853.358411 153.539133 
" style="fill:none;stroke:#ff0000;stroke-width:0.5;"/>
    <path clip-path="url(#pbbf21c2466)" d="M 724.873635 199.841841 
L 783.167654 211.034771 
L 803.392109 214.918032 
L 861.686128 226.110961 
" style="fill:none;stroke:#ff0000;stroke-width:0.5;"/>
    <path clip-path="url(#pbbf21c2466)" d="M 736.770373 124.110463 
L 786.736675 119.67941 
L 815.288848 117.14738 
L 865.25515 112.716327 
" style="fill:none;stroke:#ff0000;stroke-width:0.5;"/>
    <path clip-path="url(#pbbf21c2466)" d="M 761.753524 145.098613 
L 817.668195 138.610072 
L 840.271999 135.987045 
L 896.18667 129.498504 
" style="fill:none;stroke:#ff0000;stroke-width:0.5;"/>
    <path clip-path="url(#pbbf21c2466)" d="M 779.598632 174.007504 
L 830.754608 160.26277 
L 853.358411 154.189515 
L 906.893734 139.805492 
" style="fill:none;stroke:#ff0000;stroke-width:0.5;"/>
    <path clip-path="url(#pbbf21c2466)" d="M 786.736675 120.46922 
L 836.702977 114.961312 
L 865.25515 111.813935 
L 915.221451 106.306027 
" style="fill:none;stroke:#ff0000;stroke-width:0.5;"/>
    <path clip-path="url(#pbbf21c2466)" d="M 783.167654 213.558135 
L 840.271999 220.3943 
L 861.686128 222.957861 
L 918.790473 229.794026 
" style="fill:none;stroke:#ff0000;stroke-width:0.5;"/>
    <path clip-path="url(#pbbf21c2466)" d="M 817.668195 145.217282 
L 874.77254 129.355321 
L 896.18667 123.407086 
L 950.911667 108.20604 
" style="fill:none;stroke:#ff0000;stroke-width:0.5;"/>
    <path clip-path="url(#pbbf21c2466)" d="M 830.754608 158.197178 
L 883.100257 146.648409 
L 906.893734 141.398969 
L 959.239384 129.850201 
" style="fill:none;stroke:#ff0000;stroke-width:0.5;"/>
    <path clip-path="url(#pbbf21c2466)" d="M 836.702977 115.603343 
L 886.669279 109.478202 
L 915.221451 105.978122 
L 965.187753 99.852981 
" style="fill:none;stroke:#ff0000;stroke-width:0.5;"/>
    <path clip-path="url(#pbbf21c2466)" d="M 840.271999 227.836596 
L 897.376344 224.118432 
L 918.790473 222.72412 
L 975.894818 219.005956 
" style="fill:none;stroke:#ff0000;stroke-width:0.5;"/>
    <path clip-path="url(#pbbf21c2466)" d="M 874.77254 129.91842 
L 930.687212 113.764687 
L 950.911667 107.921848 
L 1006.826338 91.768115 
" style="fill:none;stroke:#ff0000;stroke-width:0.5;"/>
    <path clip-path="url(#pbbf21c2466)" d="M 883.100257 146.639303 
L 935.445907 135.432295 
L 959.239384 130.3382 
L 1013.964381 118.621783 
" style="fill:none;stroke:#ff0000;stroke-width:0.5;"/>
    <path clip-path="url(#pbbf21c2466)" d="M 897.376344 225.126167 
L 954.480689 220.162283 
L 975.894818 218.300827 
L 1032.999163 213.336943 
" style="fill:none;stroke:#ff0000;stroke-width:0.5;"/>
    <path clip-path="url(#pbbf21c2466)" d="M 930.687212 109.496243 
L 985.412209 99.588137 
L 1006.826338 95.711052 
L 1063.930683 85.372159 
" style="fill:none;stroke:#ff0000;stroke-width:0.5;"/>
    <path clip-path="url(#pbbf21c2466)" d="M 954.480689 220.049457 
L 1012.774707 214.97461 
L 1032.999163 213.213949 
L 1091.293182 208.139102 
" style="fill:none;stroke:#ff0000;stroke-width:0.5;"/>
   </g>
   <g id="line2d_14">
    <path clip-path="url(#pbbf21c2466)" d="M 93.156818 212.909763 
L 94.346492 212.433865 
L 95.536166 211.957966 
L 96.72584 211.72009 
L 97.915514 211.244191 
L 99.105187 210.768292 
L 100.294861 211.006314 
L 101.484535 210.530416 
L 102.674209 210.054517 
L 103.863883 209.81664 
L 105.053557 209.340742 
L 106.243231 209.221804 
L 107.432904 208.745905 
L 108.622578 208.270006 
L 109.812252 208.03213 
L 111.001926 207.556231 
L 112.1916 207.080333 
L 113.381274 206.961394 
L 114.570948 206.485496 
L 115.760621 205.890659 
L 116.950295 205.77172 
L 118.139969 205.295822 
L 119.329643 205.295822 
L 120.519317 205.057945 
L 121.708991 204.582046 
L 122.898665 204.106148 
L 124.088338 203.98721 
L 125.278012 203.511311 
L 126.467686 203.035412 
L 127.65736 202.797536 
L 128.847034 202.321637 
L 130.036708 202.08376 
L 131.226382 201.7268 
L 132.416055 201.250902 
L 133.605729 201.013025 
L 134.795403 200.656065 
L 135.985077 200.180166 
L 137.174751 200.537126 
L 138.364425 200.061228 
L 139.554098 199.704413 
L 140.743772 199.585329 
L 141.933446 199.228514 
L 143.12312 198.752616 
L 144.312794 198.752616 
L 145.502468 198.276717 
L 146.692142 197.919902 
L 147.881815 197.800818 
L 149.071489 197.444003 
L 150.261163 197.444003 
L 151.450837 196.968105 
L 152.640511 196.611145 
L 153.830185 196.492206 
L 155.019859 196.135391 
L 156.209532 196.135391 
L 157.399206 196.016308 
L 158.58888 195.659493 
L 159.778554 195.302532 
L 160.968228 195.183594 
L 162.157902 194.826634 
L 163.347576 194.469819 
L 164.537249 194.35088 
L 165.726923 193.99392 
L 166.916597 193.63696 
L 168.106271 193.518022 
L 169.295945 193.161207 
L 170.485619 193.042123 
L 171.675293 192.685308 
L 172.864966 192.328348 
L 174.05464 192.685308 
" style="fill:none;stroke:#1f77b4;stroke-linecap:square;stroke-width:0.3;"/>
   </g>
   <g id="line2d_15">
    <defs>
     <path d="M 0 0.1 
C 0.02652 0.1 0.051958 0.089463 0.070711 0.070711 
C 0.089463 0.051958 0.1 0.02652 0.1 0 
C 0.1 -0.02652 0.089463 -0.051958 0.070711 -0.070711 
C 0.051958 -0.089463 0.02652 -0.1 0 -0.1 
C -0.02652 -0.1 -0.051958 -0.089463 -0.070711 -0.070711 
C -0.089463 -0.051958 -0.1 -0.02652 -0.1 0 
C -0.1 0.02652 -0.089463 0.051958 -0.070711 0.070711 
C -0.051958 0.089463 -0.02652 0.1 0 0.1 
z
" id="mffa361f3f7" style="stroke:#000000;"/>
    </defs>
    <g clip-path="url(#pbbf21c2466)">
     <use style="stroke:#000000;" x="95.536166" xlink:href="#mffa361f3f7" y="211.400576"/>
     <use style="stroke:#000000;" x="96.72584" xlink:href="#mffa361f3f7" y="211.097986"/>
     <use style="stroke:#000000;" x="171.675293" xlink:href="#mffa361f3f7" y="192.034776"/>
     <use style="stroke:#000000;" x="172.864966" xlink:href="#mffa361f3f7" y="191.732185"/>
     <use style="stroke:#000000;" x="94.346492" xlink:href="#mffa361f3f7" y="133.54508"/>
     <use style="stroke:#000000;" x="134.795403" xlink:href="#mffa361f3f7" y="136.544851"/>
     <use style="stroke:#000000;" x="172.864966" xlink:href="#mffa361f3f7" y="139.368164"/>
     <use style="stroke:#000000;" x="213.313877" xlink:href="#mffa361f3f7" y="142.367935"/>
     <use style="stroke:#000000;" x="95.536166" xlink:href="#mffa361f3f7" y="135.889666"/>
     <use style="stroke:#000000;" x="135.985077" xlink:href="#mffa361f3f7" y="145.114414"/>
     <use style="stroke:#000000;" x="171.675293" xlink:href="#mffa361f3f7" y="153.253898"/>
     <use style="stroke:#000000;" x="214.503551" xlink:href="#mffa361f3f7" y="163.021279"/>
     <use style="stroke:#000000;" x="95.536166" xlink:href="#mffa361f3f7" y="209.513979"/>
     <use style="stroke:#000000;" x="143.12312" xlink:href="#mffa361f3f7" y="200.563979"/>
     <use style="stroke:#000000;" x="171.675293" xlink:href="#mffa361f3f7" y="195.19398"/>
     <use style="stroke:#000000;" x="221.641594" xlink:href="#mffa361f3f7" y="185.79648"/>
     <use style="stroke:#000000;" x="94.346492" xlink:href="#mffa361f3f7" y="177.983579"/>
     <use style="stroke:#000000;" x="146.692142" xlink:href="#mffa361f3f7" y="182.685776"/>
     <use style="stroke:#000000;" x="172.864966" xlink:href="#mffa361f3f7" y="185.036875"/>
     <use style="stroke:#000000;" x="225.210616" xlink:href="#mffa361f3f7" y="189.739072"/>
     <use style="stroke:#000000;" x="94.346492" xlink:href="#mffa361f3f7" y="247.103138"/>
     <use style="stroke:#000000;" x="149.071489" xlink:href="#mffa361f3f7" y="238.434943"/>
     <use style="stroke:#000000;" x="172.864966" xlink:href="#mffa361f3f7" y="234.666162"/>
     <use style="stroke:#000000;" x="227.589964" xlink:href="#mffa361f3f7" y="225.997967"/>
     <use style="stroke:#000000;" x="95.536166" xlink:href="#mffa361f3f7" y="93.011477"/>
     <use style="stroke:#000000;" x="153.830185" xlink:href="#mffa361f3f7" y="113.196021"/>
     <use style="stroke:#000000;" x="171.675293" xlink:href="#mffa361f3f7" y="119.374963"/>
     <use style="stroke:#000000;" x="227.589964" xlink:href="#mffa361f3f7" y="138.735648"/>
     <use style="stroke:#000000;" x="134.795403" xlink:href="#mffa361f3f7" y="135.018907"/>
     <use style="stroke:#000000;" x="176.433988" xlink:href="#mffa361f3f7" y="139.561943"/>
     <use style="stroke:#000000;" x="213.313877" xlink:href="#mffa361f3f7" y="143.585775"/>
     <use style="stroke:#000000;" x="254.952462" xlink:href="#mffa361f3f7" y="148.128811"/>
     <use style="stroke:#000000;" x="135.985077" xlink:href="#mffa361f3f7" y="148.976857"/>
     <use style="stroke:#000000;" x="177.623662" xlink:href="#mffa361f3f7" y="154.095331"/>
     <use style="stroke:#000000;" x="214.503551" xlink:href="#mffa361f3f7" y="158.628837"/>
     <use style="stroke:#000000;" x="256.142136" xlink:href="#mffa361f3f7" y="163.747312"/>
     <use style="stroke:#000000;" x="143.12312" xlink:href="#mffa361f3f7" y="199.086086"/>
     <use style="stroke:#000000;" x="193.089422" xlink:href="#mffa361f3f7" y="191.525323"/>
     <use style="stroke:#000000;" x="221.641594" xlink:href="#mffa361f3f7" y="187.204888"/>
     <use style="stroke:#000000;" x="271.607896" xlink:href="#mffa361f3f7" y="179.644125"/>
     <use style="stroke:#000000;" x="146.692142" xlink:href="#mffa361f3f7" y="183.310889"/>
     <use style="stroke:#000000;" x="199.037791" xlink:href="#mffa361f3f7" y="187.040313"/>
     <use style="stroke:#000000;" x="225.210616" xlink:href="#mffa361f3f7" y="188.905026"/>
     <use style="stroke:#000000;" x="277.556266" xlink:href="#mffa361f3f7" y="192.63445"/>
     <use style="stroke:#000000;" x="149.071489" xlink:href="#mffa361f3f7" y="112.418757"/>
     <use style="stroke:#000000;" x="203.796487" xlink:href="#mffa361f3f7" y="117.200421"/>
     <use style="stroke:#000000;" x="227.589964" xlink:href="#mffa361f3f7" y="119.279405"/>
     <use style="stroke:#000000;" x="282.314961" xlink:href="#mffa361f3f7" y="124.061069"/>
     <use style="stroke:#000000;" x="149.071489" xlink:href="#mffa361f3f7" y="238.366541"/>
     <use style="stroke:#000000;" x="204.98616" xlink:href="#mffa361f3f7" y="229.350503"/>
     <use style="stroke:#000000;" x="227.589964" xlink:href="#mffa361f3f7" y="225.705721"/>
     <use style="stroke:#000000;" x="283.504635" xlink:href="#mffa361f3f7" y="216.689682"/>
     <use style="stroke:#000000;" x="153.830185" xlink:href="#mffa361f3f7" y="114.586069"/>
     <use style="stroke:#000000;" x="209.744856" xlink:href="#mffa361f3f7" y="131.787199"/>
     <use style="stroke:#000000;" x="227.589964" xlink:href="#mffa361f3f7" y="137.276921"/>
     <use style="stroke:#000000;" x="285.883983" xlink:href="#mffa361f3f7" y="155.210014"/>
     <use style="stroke:#000000;" x="176.433988" xlink:href="#mffa361f3f7" y="139.3358"/>
     <use style="stroke:#000000;" x="216.882899" xlink:href="#mffa361f3f7" y="143.955005"/>
     <use style="stroke:#000000;" x="254.952462" xlink:href="#mffa361f3f7" y="148.302492"/>
     <use style="stroke:#000000;" x="295.401373" xlink:href="#mffa361f3f7" y="152.921698"/>
     <use style="stroke:#000000;" x="177.623662" xlink:href="#mffa361f3f7" y="157.265603"/>
     <use style="stroke:#000000;" x="219.262247" xlink:href="#mffa361f3f7" y="159.376671"/>
     <use style="stroke:#000000;" x="256.142136" xlink:href="#mffa361f3f7" y="161.246474"/>
     <use style="stroke:#000000;" x="297.780721" xlink:href="#mffa361f3f7" y="163.357542"/>
     <use style="stroke:#000000;" x="193.089422" xlink:href="#mffa361f3f7" y="191.445267"/>
     <use style="stroke:#000000;" x="241.86605" xlink:href="#mffa361f3f7" y="184.025521"/>
     <use style="stroke:#000000;" x="271.607896" xlink:href="#mffa361f3f7" y="179.501286"/>
     <use style="stroke:#000000;" x="320.384524" xlink:href="#mffa361f3f7" y="172.08154"/>
     <use style="stroke:#000000;" x="199.037791" xlink:href="#mffa361f3f7" y="187.584553"/>
     <use style="stroke:#000000;" x="251.383441" xlink:href="#mffa361f3f7" y="190.744263"/>
     <use style="stroke:#000000;" x="277.556266" xlink:href="#mffa361f3f7" y="192.324118"/>
     <use style="stroke:#000000;" x="329.901915" xlink:href="#mffa361f3f7" y="195.483828"/>
     <use style="stroke:#000000;" x="216.882899" xlink:href="#mffa361f3f7" y="145.571248"/>
     <use style="stroke:#000000;" x="258.521484" xlink:href="#mffa361f3f7" y="148.331249"/>
     <use style="stroke:#000000;" x="295.401373" xlink:href="#mffa361f3f7" y="150.775822"/>
     <use style="stroke:#000000;" x="337.039958" xlink:href="#mffa361f3f7" y="153.535823"/>
     <use style="stroke:#000000;" x="204.98616" xlink:href="#mffa361f3f7" y="231.545006"/>
     <use style="stroke:#000000;" x="262.090505" xlink:href="#mffa361f3f7" y="219.397223"/>
     <use style="stroke:#000000;" x="283.504635" xlink:href="#mffa361f3f7" y="214.841805"/>
     <use style="stroke:#000000;" x="338.229632" xlink:href="#mffa361f3f7" y="203.20018"/>
     <use style="stroke:#000000;" x="219.262247" xlink:href="#mffa361f3f7" y="160.846475"/>
     <use style="stroke:#000000;" x="262.090505" xlink:href="#mffa361f3f7" y="161.071595"/>
     <use style="stroke:#000000;" x="297.780721" xlink:href="#mffa361f3f7" y="161.259194"/>
     <use style="stroke:#000000;" x="340.60898" xlink:href="#mffa361f3f7" y="161.484313"/>
     <use style="stroke:#000000;" x="209.744856" xlink:href="#mffa361f3f7" y="133.472625"/>
     <use style="stroke:#000000;" x="266.849201" xlink:href="#mffa361f3f7" y="148.722636"/>
     <use style="stroke:#000000;" x="285.883983" xlink:href="#mffa361f3f7" y="153.805973"/>
     <use style="stroke:#000000;" x="342.988328" xlink:href="#mffa361f3f7" y="169.055984"/>
     <use style="stroke:#000000;" x="241.86605" xlink:href="#mffa361f3f7" y="184.313874"/>
     <use style="stroke:#000000;" x="291.832352" xlink:href="#mffa361f3f7" y="176.418263"/>
     <use style="stroke:#000000;" x="320.384524" xlink:href="#mffa361f3f7" y="171.906485"/>
     <use style="stroke:#000000;" x="370.350826" xlink:href="#mffa361f3f7" y="164.010873"/>
     <use style="stroke:#000000;" x="258.521484" xlink:href="#mffa361f3f7" y="151.127621"/>
     <use style="stroke:#000000;" x="298.970395" xlink:href="#mffa361f3f7" y="151.078196"/>
     <use style="stroke:#000000;" x="337.039958" xlink:href="#mffa361f3f7" y="151.031679"/>
     <use style="stroke:#000000;" x="377.488869" xlink:href="#mffa361f3f7" y="150.982254"/>
     <use style="stroke:#000000;" x="251.383441" xlink:href="#mffa361f3f7" y="190.711388"/>
     <use style="stroke:#000000;" x="303.72909" xlink:href="#mffa361f3f7" y="193.785847"/>
     <use style="stroke:#000000;" x="329.901915" xlink:href="#mffa361f3f7" y="195.323077"/>
     <use style="stroke:#000000;" x="382.247565" xlink:href="#mffa361f3f7" y="198.397536"/>
     <use style="stroke:#000000;" x="258.521484" xlink:href="#mffa361f3f7" y="121.813364"/>
     <use style="stroke:#000000;" x="313.246481" xlink:href="#mffa361f3f7" y="125.755236"/>
     <use style="stroke:#000000;" x="337.039958" xlink:href="#mffa361f3f7" y="127.469094"/>
     <use style="stroke:#000000;" x="391.764956" xlink:href="#mffa361f3f7" y="131.410965"/>
     <use style="stroke:#000000;" x="262.090505" xlink:href="#mffa361f3f7" y="219.927742"/>
     <use style="stroke:#000000;" x="318.005177" xlink:href="#mffa361f3f7" y="207.280381"/>
     <use style="stroke:#000000;" x="338.229632" xlink:href="#mffa361f3f7" y="202.705803"/>
     <use style="stroke:#000000;" x="394.144303" xlink:href="#mffa361f3f7" y="190.058442"/>
     <use style="stroke:#000000;" x="266.849201" xlink:href="#mffa361f3f7" y="151.866126"/>
     <use style="stroke:#000000;" x="323.953546" xlink:href="#mffa361f3f7" y="161.656437"/>
     <use style="stroke:#000000;" x="342.988328" xlink:href="#mffa361f3f7" y="164.919874"/>
     <use style="stroke:#000000;" x="402.47202" xlink:href="#mffa361f3f7" y="175.118114"/>
     <use style="stroke:#000000;" x="298.970395" xlink:href="#mffa361f3f7" y="152.820101"/>
     <use style="stroke:#000000;" x="340.60898" xlink:href="#mffa361f3f7" y="150.92007"/>
     <use style="stroke:#000000;" x="377.488869" xlink:href="#mffa361f3f7" y="149.237186"/>
     <use style="stroke:#000000;" x="419.127454" xlink:href="#mffa361f3f7" y="147.337155"/>
     <use style="stroke:#000000;" x="303.72909" xlink:href="#mffa361f3f7" y="161.478961"/>
     <use style="stroke:#000000;" x="346.557349" xlink:href="#mffa361f3f7" y="158.61528"/>
     <use style="stroke:#000000;" x="382.247565" xlink:href="#mffa361f3f7" y="156.22888"/>
     <use style="stroke:#000000;" x="425.075823" xlink:href="#mffa361f3f7" y="153.365199"/>
     <use style="stroke:#000000;" x="303.72909" xlink:href="#mffa361f3f7" y="194.955767"/>
     <use style="stroke:#000000;" x="356.07474" xlink:href="#mffa361f3f7" y="196.501333"/>
     <use style="stroke:#000000;" x="382.247565" xlink:href="#mffa361f3f7" y="197.274115"/>
     <use style="stroke:#000000;" x="434.593214" xlink:href="#mffa361f3f7" y="198.819681"/>
     <use style="stroke:#000000;" x="313.246481" xlink:href="#mffa361f3f7" y="124.371428"/>
     <use style="stroke:#000000;" x="367.971478" xlink:href="#mffa361f3f7" y="130.316924"/>
     <use style="stroke:#000000;" x="391.764956" xlink:href="#mffa361f3f7" y="132.901922"/>
     <use style="stroke:#000000;" x="446.489953" xlink:href="#mffa361f3f7" y="138.847418"/>
     <use style="stroke:#000000;" x="318.005177" xlink:href="#mffa361f3f7" y="208.491173"/>
     <use style="stroke:#000000;" x="372.730174" xlink:href="#mffa361f3f7" y="194.397712"/>
     <use style="stroke:#000000;" x="394.144303" xlink:href="#mffa361f3f7" y="188.882879"/>
     <use style="stroke:#000000;" x="448.869301" xlink:href="#mffa361f3f7" y="174.789417"/>
     <use style="stroke:#000000;" x="323.953546" xlink:href="#mffa361f3f7" y="165.377387"/>
     <use style="stroke:#000000;" x="381.057891" xlink:href="#mffa361f3f7" y="170.263539"/>
     <use style="stroke:#000000;" x="402.47202" xlink:href="#mffa361f3f7" y="172.095846"/>
     <use style="stroke:#000000;" x="459.576365" xlink:href="#mffa361f3f7" y="176.981998"/>
     <use style="stroke:#000000;" x="340.60898" xlink:href="#mffa361f3f7" y="152.039494"/>
     <use style="stroke:#000000;" x="382.247565" xlink:href="#mffa361f3f7" y="149.051634"/>
     <use style="stroke:#000000;" x="419.127454" xlink:href="#mffa361f3f7" y="146.405244"/>
     <use style="stroke:#000000;" x="460.766039" xlink:href="#mffa361f3f7" y="143.417384"/>
     <use style="stroke:#000000;" x="346.557349" xlink:href="#mffa361f3f7" y="156.834393"/>
     <use style="stroke:#000000;" x="388.195934" xlink:href="#mffa361f3f7" y="155.75051"/>
     <use style="stroke:#000000;" x="425.075823" xlink:href="#mffa361f3f7" y="154.7905"/>
     <use style="stroke:#000000;" x="466.714408" xlink:href="#mffa361f3f7" y="153.706617"/>
     <use style="stroke:#000000;" x="340.60898" xlink:href="#mffa361f3f7" y="170.700402"/>
     <use style="stroke:#000000;" x="391.764956" xlink:href="#mffa361f3f7" y="160.746441"/>
     <use style="stroke:#000000;" x="419.127454" xlink:href="#mffa361f3f7" y="155.422229"/>
     <use style="stroke:#000000;" x="467.904082" xlink:href="#mffa361f3f7" y="145.931244"/>
     <use style="stroke:#000000;" x="356.07474" xlink:href="#mffa361f3f7" y="198.383582"/>
     <use style="stroke:#000000;" x="408.42039" xlink:href="#mffa361f3f7" y="197.293215"/>
     <use style="stroke:#000000;" x="434.593214" xlink:href="#mffa361f3f7" y="196.748032"/>
     <use style="stroke:#000000;" x="486.938864" xlink:href="#mffa361f3f7" y="195.657665"/>
     <use style="stroke:#000000;" x="367.971478" xlink:href="#mffa361f3f7" y="130.261597"/>
     <use style="stroke:#000000;" x="422.696476" xlink:href="#mffa361f3f7" y="136.204139"/>
     <use style="stroke:#000000;" x="446.489953" xlink:href="#mffa361f3f7" y="138.787854"/>
     <use style="stroke:#000000;" x="501.21495" xlink:href="#mffa361f3f7" y="144.730396"/>
     <use style="stroke:#000000;" x="382.247565" xlink:href="#mffa361f3f7" y="148.217688"/>
     <use style="stroke:#000000;" x="423.88615" xlink:href="#mffa361f3f7" y="146.354848"/>
     <use style="stroke:#000000;" x="460.766039" xlink:href="#mffa361f3f7" y="144.704905"/>
     <use style="stroke:#000000;" x="502.404624" xlink:href="#mffa361f3f7" y="142.842065"/>
     <use style="stroke:#000000;" x="372.730174" xlink:href="#mffa361f3f7" y="195.130117"/>
     <use style="stroke:#000000;" x="428.644845" xlink:href="#mffa361f3f7" y="179.692722"/>
     <use style="stroke:#000000;" x="448.869301" xlink:href="#mffa361f3f7" y="174.108983"/>
     <use style="stroke:#000000;" x="504.783972" xlink:href="#mffa361f3f7" y="158.671588"/>
     <use style="stroke:#000000;" x="388.195934" xlink:href="#mffa361f3f7" y="155.462406"/>
     <use style="stroke:#000000;" x="431.024193" xlink:href="#mffa361f3f7" y="154.544734"/>
     <use style="stroke:#000000;" x="466.714408" xlink:href="#mffa361f3f7" y="153.780008"/>
     <use style="stroke:#000000;" x="509.542667" xlink:href="#mffa361f3f7" y="152.862336"/>
     <use style="stroke:#000000;" x="381.057891" xlink:href="#mffa361f3f7" y="170.584301"/>
     <use style="stroke:#000000;" x="438.162236" xlink:href="#mffa361f3f7" y="175.012428"/>
     <use style="stroke:#000000;" x="459.576365" xlink:href="#mffa361f3f7" y="176.672976"/>
     <use style="stroke:#000000;" x="516.68071" xlink:href="#mffa361f3f7" y="181.101103"/>
     <use style="stroke:#000000;" x="391.764956" xlink:href="#mffa361f3f7" y="162.850416"/>
     <use style="stroke:#000000;" x="441.731257" xlink:href="#mffa361f3f7" y="150.92728"/>
     <use style="stroke:#000000;" x="467.904082" xlink:href="#mffa361f3f7" y="144.681828"/>
     <use style="stroke:#000000;" x="517.870384" xlink:href="#mffa361f3f7" y="132.758692"/>
     <use style="stroke:#000000;" x="408.42039" xlink:href="#mffa361f3f7" y="199.178305"/>
     <use style="stroke:#000000;" x="460.766039" xlink:href="#mffa361f3f7" y="195.642999"/>
     <use style="stroke:#000000;" x="486.938864" xlink:href="#mffa361f3f7" y="193.875346"/>
     <use style="stroke:#000000;" x="539.284513" xlink:href="#mffa361f3f7" y="190.34004"/>
     <use style="stroke:#000000;" x="423.88615" xlink:href="#mffa361f3f7" y="144.385141"/>
     <use style="stroke:#000000;" x="464.335061" xlink:href="#mffa361f3f7" y="144.497657"/>
     <use style="stroke:#000000;" x="502.404624" xlink:href="#mffa361f3f7" y="144.603554"/>
     <use style="stroke:#000000;" x="542.853535" xlink:href="#mffa361f3f7" y="144.71607"/>
     <use style="stroke:#000000;" x="431.024193" xlink:href="#mffa361f3f7" y="154.597701"/>
     <use style="stroke:#000000;" x="472.662778" xlink:href="#mffa361f3f7" y="153.74896"/>
     <use style="stroke:#000000;" x="509.542667" xlink:href="#mffa361f3f7" y="152.997217"/>
     <use style="stroke:#000000;" x="551.181252" xlink:href="#mffa361f3f7" y="152.148475"/>
     <use style="stroke:#000000;" x="422.696476" xlink:href="#mffa361f3f7" y="137.739548"/>
     <use style="stroke:#000000;" x="477.421473" xlink:href="#mffa361f3f7" y="141.624748"/>
     <use style="stroke:#000000;" x="501.21495" xlink:href="#mffa361f3f7" y="143.313966"/>
     <use style="stroke:#000000;" x="555.939947" xlink:href="#mffa361f3f7" y="147.199167"/>
     <use style="stroke:#000000;" x="428.644845" xlink:href="#mffa361f3f7" y="176.573046"/>
     <use style="stroke:#000000;" x="483.369842" xlink:href="#mffa361f3f7" y="165.68429"/>
     <use style="stroke:#000000;" x="504.783972" xlink:href="#mffa361f3f7" y="161.423472"/>
     <use style="stroke:#000000;" x="561.888317" xlink:href="#mffa361f3f7" y="150.061291"/>
     <use style="stroke:#000000;" x="441.731257" xlink:href="#mffa361f3f7" y="147.331962"/>
     <use style="stroke:#000000;" x="490.507885" xlink:href="#mffa361f3f7" y="140.177782"/>
     <use style="stroke:#000000;" x="517.870384" xlink:href="#mffa361f3f7" y="136.164462"/>
     <use style="stroke:#000000;" x="569.02636" xlink:href="#mffa361f3f7" y="128.661298"/>
     <use style="stroke:#000000;" x="438.162236" xlink:href="#mffa361f3f7" y="174.825258"/>
     <use style="stroke:#000000;" x="495.266581" xlink:href="#mffa361f3f7" y="179.525598"/>
     <use style="stroke:#000000;" x="516.68071" xlink:href="#mffa361f3f7" y="181.288226"/>
     <use style="stroke:#000000;" x="573.785055" xlink:href="#mffa361f3f7" y="185.988567"/>
     <use style="stroke:#000000;" x="464.335061" xlink:href="#mffa361f3f7" y="142.619787"/>
     <use style="stroke:#000000;" x="505.973646" xlink:href="#mffa361f3f7" y="144.878379"/>
     <use style="stroke:#000000;" x="542.853535" xlink:href="#mffa361f3f7" y="146.878847"/>
     <use style="stroke:#000000;" x="584.49212" xlink:href="#mffa361f3f7" y="149.137439"/>
     <use style="stroke:#000000;" x="460.766039" xlink:href="#mffa361f3f7" y="195.049896"/>
     <use style="stroke:#000000;" x="514.301363" xlink:href="#mffa361f3f7" y="192.464309"/>
     <use style="stroke:#000000;" x="539.284513" xlink:href="#mffa361f3f7" y="191.257702"/>
     <use style="stroke:#000000;" x="592.819837" xlink:href="#mffa361f3f7" y="188.672115"/>
     <use style="stroke:#000000;" x="477.421473" xlink:href="#mffa361f3f7" y="142.208002"/>
     <use style="stroke:#000000;" x="533.336144" xlink:href="#mffa361f3f7" y="145.410913"/>
     <use style="stroke:#000000;" x="555.939947" xlink:href="#mffa361f3f7" y="146.705707"/>
     <use style="stroke:#000000;" x="611.854619" xlink:href="#mffa361f3f7" y="149.908619"/>
     <use style="stroke:#000000;" x="490.507885" xlink:href="#mffa361f3f7" y="136.483209"/>
     <use style="stroke:#000000;" x="539.284513" xlink:href="#mffa361f3f7" y="133.873768"/>
     <use style="stroke:#000000;" x="569.02636" xlink:href="#mffa361f3f7" y="132.282646"/>
     <use style="stroke:#000000;" x="617.802988" xlink:href="#mffa361f3f7" y="129.673206"/>
     <use style="stroke:#000000;" x="505.973646" xlink:href="#mffa361f3f7" y="142.544029"/>
     <use style="stroke:#000000;" x="546.422557" xlink:href="#mffa361f3f7" y="147.073929"/>
     <use style="stroke:#000000;" x="584.49212" xlink:href="#mffa361f3f7" y="151.337365"/>
     <use style="stroke:#000000;" x="624.941031" xlink:href="#mffa361f3f7" y="155.867265"/>
     <use style="stroke:#000000;" x="495.266581" xlink:href="#mffa361f3f7" y="180.095294"/>
     <use style="stroke:#000000;" x="553.5606" xlink:href="#mffa361f3f7" y="184.019391"/>
     <use style="stroke:#000000;" x="573.785055" xlink:href="#mffa361f3f7" y="185.380812"/>
     <use style="stroke:#000000;" x="632.079074" xlink:href="#mffa361f3f7" y="189.304909"/>
     <use style="stroke:#000000;" x="514.301363" xlink:href="#mffa361f3f7" y="151.891373"/>
     <use style="stroke:#000000;" x="555.939947" xlink:href="#mffa361f3f7" y="153.286431"/>
     <use style="stroke:#000000;" x="592.819837" xlink:href="#mffa361f3f7" y="154.522053"/>
     <use style="stroke:#000000;" x="634.458422" xlink:href="#mffa361f3f7" y="155.91711"/>
     <use style="stroke:#000000;" x="514.301363" xlink:href="#mffa361f3f7" y="191.819918"/>
     <use style="stroke:#000000;" x="566.647012" xlink:href="#mffa361f3f7" y="189.838592"/>
     <use style="stroke:#000000;" x="592.819837" xlink:href="#mffa361f3f7" y="188.847929"/>
     <use style="stroke:#000000;" x="645.165487" xlink:href="#mffa361f3f7" y="186.866603"/>
     <use style="stroke:#000000;" x="546.422557" xlink:href="#mffa361f3f7" y="146.176732"/>
     <use style="stroke:#000000;" x="588.061142" xlink:href="#mffa361f3f7" y="151.64884"/>
     <use style="stroke:#000000;" x="624.941031" xlink:href="#mffa361f3f7" y="156.495564"/>
     <use style="stroke:#000000;" x="666.579616" xlink:href="#mffa361f3f7" y="161.967671"/>
     <use style="stroke:#000000;" x="539.284513" xlink:href="#mffa361f3f7" y="132.202234"/>
     <use style="stroke:#000000;" x="589.250815" xlink:href="#mffa361f3f7" y="131.514305"/>
     <use style="stroke:#000000;" x="617.802988" xlink:href="#mffa361f3f7" y="131.121203"/>
     <use style="stroke:#000000;" x="667.76929" xlink:href="#mffa361f3f7" y="130.433274"/>
     <use style="stroke:#000000;" x="539.284513" xlink:href="#mffa361f3f7" y="154.112191"/>
     <use style="stroke:#000000;" x="594.009511" xlink:href="#mffa361f3f7" y="148.066557"/>
     <use style="stroke:#000000;" x="617.802988" xlink:href="#mffa361f3f7" y="145.438021"/>
     <use style="stroke:#000000;" x="672.527985" xlink:href="#mffa361f3f7" y="139.392387"/>
     <use style="stroke:#000000;" x="555.939947" xlink:href="#mffa361f3f7" y="153.36484"/>
     <use style="stroke:#000000;" x="598.768206" xlink:href="#mffa361f3f7" y="154.576379"/>
     <use style="stroke:#000000;" x="634.458422" xlink:href="#mffa361f3f7" y="155.585995"/>
     <use style="stroke:#000000;" x="677.286681" xlink:href="#mffa361f3f7" y="156.797535"/>
     <use style="stroke:#000000;" x="553.5606" xlink:href="#mffa361f3f7" y="183.684613"/>
     <use style="stroke:#000000;" x="610.664945" xlink:href="#mffa361f3f7" y="187.945881"/>
     <use style="stroke:#000000;" x="632.079074" xlink:href="#mffa361f3f7" y="189.543856"/>
     <use style="stroke:#000000;" x="689.183419" xlink:href="#mffa361f3f7" y="193.805123"/>
     <use style="stroke:#000000;" x="566.647012" xlink:href="#mffa361f3f7" y="189.889342"/>
     <use style="stroke:#000000;" x="618.992662" xlink:href="#mffa361f3f7" y="188.374696"/>
     <use style="stroke:#000000;" x="645.165487" xlink:href="#mffa361f3f7" y="187.617373"/>
     <use style="stroke:#000000;" x="697.511136" xlink:href="#mffa361f3f7" y="186.102728"/>
     <use style="stroke:#000000;" x="588.061142" xlink:href="#mffa361f3f7" y="151.661011"/>
     <use style="stroke:#000000;" x="628.510053" xlink:href="#mffa361f3f7" y="157.03588"/>
     <use style="stroke:#000000;" x="666.579616" xlink:href="#mffa361f3f7" y="162.09458"/>
     <use style="stroke:#000000;" x="707.028527" xlink:href="#mffa361f3f7" y="167.469448"/>
     <use style="stroke:#000000;" x="589.250815" xlink:href="#mffa361f3f7" y="132.056622"/>
     <use style="stroke:#000000;" x="638.027443" xlink:href="#mffa361f3f7" y="130.732457"/>
     <use style="stroke:#000000;" x="667.76929" xlink:href="#mffa361f3f7" y="129.92504"/>
     <use style="stroke:#000000;" x="716.545918" xlink:href="#mffa361f3f7" y="128.600875"/>
     <use style="stroke:#000000;" x="598.768206" xlink:href="#mffa361f3f7" y="155.910975"/>
     <use style="stroke:#000000;" x="640.406791" xlink:href="#mffa361f3f7" y="155.697142"/>
     <use style="stroke:#000000;" x="677.286681" xlink:href="#mffa361f3f7" y="155.507748"/>
     <use style="stroke:#000000;" x="718.925265" xlink:href="#mffa361f3f7" y="155.293916"/>
     <use style="stroke:#000000;" x="594.009511" xlink:href="#mffa361f3f7" y="145.120502"/>
     <use style="stroke:#000000;" x="649.924182" xlink:href="#mffa361f3f7" y="143.272178"/>
     <use style="stroke:#000000;" x="672.527985" xlink:href="#mffa361f3f7" y="142.524983"/>
     <use style="stroke:#000000;" x="728.442656" xlink:href="#mffa361f3f7" y="140.676659"/>
     <use style="stroke:#000000;" x="610.664945" xlink:href="#mffa361f3f7" y="186.002944"/>
     <use style="stroke:#000000;" x="667.76929" xlink:href="#mffa361f3f7" y="193.299314"/>
     <use style="stroke:#000000;" x="689.183419" xlink:href="#mffa361f3f7" y="196.035453"/>
     <use style="stroke:#000000;" x="746.287764" xlink:href="#mffa361f3f7" y="203.331823"/>
     <use style="stroke:#000000;" x="628.510053" xlink:href="#mffa361f3f7" y="156.690043"/>
     <use style="stroke:#000000;" x="670.148637" xlink:href="#mffa361f3f7" y="162.56481"/>
     <use style="stroke:#000000;" x="707.028527" xlink:href="#mffa361f3f7" y="167.768176"/>
     <use style="stroke:#000000;" x="748.667112" xlink:href="#mffa361f3f7" y="173.642943"/>
     <use style="stroke:#000000;" x="618.992662" xlink:href="#mffa361f3f7" y="188.448317"/>
     <use style="stroke:#000000;" x="671.338311" xlink:href="#mffa361f3f7" y="186.306997"/>
     <use style="stroke:#000000;" x="697.511136" xlink:href="#mffa361f3f7" y="185.236337"/>
     <use style="stroke:#000000;" x="749.856786" xlink:href="#mffa361f3f7" y="183.095017"/>
     <use style="stroke:#000000;" x="640.406791" xlink:href="#mffa361f3f7" y="157.136865"/>
     <use style="stroke:#000000;" x="683.23505" xlink:href="#mffa361f3f7" y="155.356414"/>
     <use style="stroke:#000000;" x="718.925265" xlink:href="#mffa361f3f7" y="153.872704"/>
     <use style="stroke:#000000;" x="761.753524" xlink:href="#mffa361f3f7" y="152.092253"/>
     <use style="stroke:#000000;" x="638.027443" xlink:href="#mffa361f3f7" y="132.564931"/>
     <use style="stroke:#000000;" x="687.993745" xlink:href="#mffa361f3f7" y="128.736997"/>
     <use style="stroke:#000000;" x="716.545918" xlink:href="#mffa361f3f7" y="126.549606"/>
     <use style="stroke:#000000;" x="766.51222" xlink:href="#mffa361f3f7" y="122.721672"/>
     <use style="stroke:#000000;" x="649.924182" xlink:href="#mffa361f3f7" y="141.932749"/>
     <use style="stroke:#000000;" x="705.838853" xlink:href="#mffa361f3f7" y="141.750887"/>
     <use style="stroke:#000000;" x="728.442656" xlink:href="#mffa361f3f7" y="141.677368"/>
     <use style="stroke:#000000;" x="784.357327" xlink:href="#mffa361f3f7" y="141.495505"/>
     <use style="stroke:#000000;" x="670.148637" xlink:href="#mffa361f3f7" y="162.254398"/>
     <use style="stroke:#000000;" x="711.787222" xlink:href="#mffa361f3f7" y="168.472918"/>
     <use style="stroke:#000000;" x="748.667112" xlink:href="#mffa361f3f7" y="173.98075"/>
     <use style="stroke:#000000;" x="790.305697" xlink:href="#mffa361f3f7" y="180.19927"/>
     <use style="stroke:#000000;" x="667.76929" xlink:href="#mffa361f3f7" y="191.97322"/>
     <use style="stroke:#000000;" x="724.873635" xlink:href="#mffa361f3f7" y="201.025693"/>
     <use style="stroke:#000000;" x="746.287764" xlink:href="#mffa361f3f7" y="204.420371"/>
     <use style="stroke:#000000;" x="803.392109" xlink:href="#mffa361f3f7" y="213.472844"/>
     <use style="stroke:#000000;" x="687.993745" xlink:href="#mffa361f3f7" y="130.112661"/>
     <use style="stroke:#000000;" x="736.770373" xlink:href="#mffa361f3f7" y="124.880242"/>
     <use style="stroke:#000000;" x="766.51222" xlink:href="#mffa361f3f7" y="121.689742"/>
     <use style="stroke:#000000;" x="815.288848" xlink:href="#mffa361f3f7" y="116.457323"/>
     <use style="stroke:#000000;" x="711.787222" xlink:href="#mffa361f3f7" y="167.178602"/>
     <use style="stroke:#000000;" x="754.615481" xlink:href="#mffa361f3f7" y="175.219688"/>
     <use style="stroke:#000000;" x="790.305697" xlink:href="#mffa361f3f7" y="181.920593"/>
     <use style="stroke:#000000;" x="830.754608" xlink:href="#mffa361f3f7" y="189.514951"/>
     <use style="stroke:#000000;" x="705.838853" xlink:href="#mffa361f3f7" y="142.298126"/>
     <use style="stroke:#000000;" x="761.753524" xlink:href="#mffa361f3f7" y="141.467681"/>
     <use style="stroke:#000000;" x="784.357327" xlink:href="#mffa361f3f7" y="141.131969"/>
     <use style="stroke:#000000;" x="840.271999" xlink:href="#mffa361f3f7" y="140.301524"/>
     <use style="stroke:#000000;" x="724.873635" xlink:href="#mffa361f3f7" y="153.012255"/>
     <use style="stroke:#000000;" x="767.701893" xlink:href="#mffa361f3f7" y="151.473153"/>
     <use style="stroke:#000000;" x="803.392109" xlink:href="#mffa361f3f7" y="150.190569"/>
     <use style="stroke:#000000;" x="846.220368" xlink:href="#mffa361f3f7" y="148.651467"/>
     <use style="stroke:#000000;" x="724.873635" xlink:href="#mffa361f3f7" y="189.646678"/>
     <use style="stroke:#000000;" x="779.598632" xlink:href="#mffa361f3f7" y="174.267538"/>
     <use style="stroke:#000000;" x="803.392109" xlink:href="#mffa361f3f7" y="167.580956"/>
     <use style="stroke:#000000;" x="853.358411" xlink:href="#mffa361f3f7" y="153.539133"/>
     <use style="stroke:#000000;" x="724.873635" xlink:href="#mffa361f3f7" y="199.841841"/>
     <use style="stroke:#000000;" x="783.167654" xlink:href="#mffa361f3f7" y="211.034771"/>
     <use style="stroke:#000000;" x="803.392109" xlink:href="#mffa361f3f7" y="214.918032"/>
     <use style="stroke:#000000;" x="861.686128" xlink:href="#mffa361f3f7" y="226.110961"/>
     <use style="stroke:#000000;" x="736.770373" xlink:href="#mffa361f3f7" y="124.110463"/>
     <use style="stroke:#000000;" x="786.736675" xlink:href="#mffa361f3f7" y="119.67941"/>
     <use style="stroke:#000000;" x="815.288848" xlink:href="#mffa361f3f7" y="117.14738"/>
     <use style="stroke:#000000;" x="865.25515" xlink:href="#mffa361f3f7" y="112.716327"/>
     <use style="stroke:#000000;" x="761.753524" xlink:href="#mffa361f3f7" y="145.098613"/>
     <use style="stroke:#000000;" x="817.668195" xlink:href="#mffa361f3f7" y="138.610072"/>
     <use style="stroke:#000000;" x="840.271999" xlink:href="#mffa361f3f7" y="135.987045"/>
     <use style="stroke:#000000;" x="896.18667" xlink:href="#mffa361f3f7" y="129.498504"/>
     <use style="stroke:#000000;" x="779.598632" xlink:href="#mffa361f3f7" y="174.007504"/>
     <use style="stroke:#000000;" x="830.754608" xlink:href="#mffa361f3f7" y="160.26277"/>
     <use style="stroke:#000000;" x="853.358411" xlink:href="#mffa361f3f7" y="154.189515"/>
     <use style="stroke:#000000;" x="906.893734" xlink:href="#mffa361f3f7" y="139.805492"/>
     <use style="stroke:#000000;" x="786.736675" xlink:href="#mffa361f3f7" y="120.46922"/>
     <use style="stroke:#000000;" x="836.702977" xlink:href="#mffa361f3f7" y="114.961312"/>
     <use style="stroke:#000000;" x="865.25515" xlink:href="#mffa361f3f7" y="111.813935"/>
     <use style="stroke:#000000;" x="915.221451" xlink:href="#mffa361f3f7" y="106.306027"/>
     <use style="stroke:#000000;" x="783.167654" xlink:href="#mffa361f3f7" y="213.558135"/>
     <use style="stroke:#000000;" x="840.271999" xlink:href="#mffa361f3f7" y="220.3943"/>
     <use style="stroke:#000000;" x="861.686128" xlink:href="#mffa361f3f7" y="222.957861"/>
     <use style="stroke:#000000;" x="918.790473" xlink:href="#mffa361f3f7" y="229.794026"/>
     <use style="stroke:#000000;" x="817.668195" xlink:href="#mffa361f3f7" y="145.217282"/>
     <use style="stroke:#000000;" x="874.77254" xlink:href="#mffa361f3f7" y="129.355321"/>
     <use style="stroke:#000000;" x="896.18667" xlink:href="#mffa361f3f7" y="123.407086"/>
     <use style="stroke:#000000;" x="950.911667" xlink:href="#mffa361f3f7" y="108.20604"/>
     <use style="stroke:#000000;" x="830.754608" xlink:href="#mffa361f3f7" y="158.197178"/>
     <use style="stroke:#000000;" x="883.100257" xlink:href="#mffa361f3f7" y="146.648409"/>
     <use style="stroke:#000000;" x="906.893734" xlink:href="#mffa361f3f7" y="141.398969"/>
     <use style="stroke:#000000;" x="959.239384" xlink:href="#mffa361f3f7" y="129.850201"/>
     <use style="stroke:#000000;" x="836.702977" xlink:href="#mffa361f3f7" y="115.603343"/>
     <use style="stroke:#000000;" x="886.669279" xlink:href="#mffa361f3f7" y="109.478202"/>
     <use style="stroke:#000000;" x="915.221451" xlink:href="#mffa361f3f7" y="105.978122"/>
     <use style="stroke:#000000;" x="965.187753" xlink:href="#mffa361f3f7" y="99.852981"/>
     <use style="stroke:#000000;" x="840.271999" xlink:href="#mffa361f3f7" y="227.836596"/>
     <use style="stroke:#000000;" x="897.376344" xlink:href="#mffa361f3f7" y="224.118432"/>
     <use style="stroke:#000000;" x="918.790473" xlink:href="#mffa361f3f7" y="222.72412"/>
     <use style="stroke:#000000;" x="975.894818" xlink:href="#mffa361f3f7" y="219.005956"/>
     <use style="stroke:#000000;" x="874.77254" xlink:href="#mffa361f3f7" y="129.91842"/>
     <use style="stroke:#000000;" x="930.687212" xlink:href="#mffa361f3f7" y="113.764687"/>
     <use style="stroke:#000000;" x="950.911667" xlink:href="#mffa361f3f7" y="107.921848"/>
     <use style="stroke:#000000;" x="1006.826338" xlink:href="#mffa361f3f7" y="91.768115"/>
     <use style="stroke:#000000;" x="883.100257" xlink:href="#mffa361f3f7" y="146.639303"/>
     <use style="stroke:#000000;" x="935.445907" xlink:href="#mffa361f3f7" y="135.432295"/>
     <use style="stroke:#000000;" x="959.239384" xlink:href="#mffa361f3f7" y="130.3382"/>
     <use style="stroke:#000000;" x="1013.964381" xlink:href="#mffa361f3f7" y="118.621783"/>
     <use style="stroke:#000000;" x="897.376344" xlink:href="#mffa361f3f7" y="225.126167"/>
     <use style="stroke:#000000;" x="954.480689" xlink:href="#mffa361f3f7" y="220.162283"/>
     <use style="stroke:#000000;" x="975.894818" xlink:href="#mffa361f3f7" y="218.300827"/>
     <use style="stroke:#000000;" x="1032.999163" xlink:href="#mffa361f3f7" y="213.336943"/>
     <use style="stroke:#000000;" x="930.687212" xlink:href="#mffa361f3f7" y="109.496243"/>
     <use style="stroke:#000000;" x="985.412209" xlink:href="#mffa361f3f7" y="99.588137"/>
     <use style="stroke:#000000;" x="1006.826338" xlink:href="#mffa361f3f7" y="95.711052"/>
     <use style="stroke:#000000;" x="1063.930683" xlink:href="#mffa361f3f7" y="85.372159"/>
     <use style="stroke:#000000;" x="954.480689" xlink:href="#mffa361f3f7" y="220.049457"/>
     <use style="stroke:#000000;" x="1012.774707" xlink:href="#mffa361f3f7" y="214.97461"/>
     <use style="stroke:#000000;" x="1032.999163" xlink:href="#mffa361f3f7" y="213.213949"/>
     <use style="stroke:#000000;" x="1091.293182" xlink:href="#mffa361f3f7" y="208.139102"/>
    </g>
   </g>
   <g id="patch_3">
    <path d="M 43.25 238.343237 
L 43.25 55.222226 
" style="fill:none;stroke:#000000;stroke-linecap:square;stroke-linejoin:miter;stroke-width:0.8;"/>
   </g>
   <g id="patch_4">
    <path d="M 1141.2 238.343237 
L 1141.2 55.222226 
" style="fill:none;stroke:#000000;stroke-linecap:square;stroke-linejoin:miter;stroke-width:0.8;"/>
   </g>
   <g id="patch_5">
    <path d="M 43.25 238.343237 
L 1141.2 238.343237 
" style="fill:none;stroke:#000000;stroke-linecap:square;stroke-linejoin:miter;stroke-width:0.8;"/>
   </g>
   <g id="patch_6">
    <path d="M 43.25 55.222226 
L 1141.2 55.222226 
" style="fill:none;stroke:#000000;stroke-linecap:square;stroke-linejoin:miter;stroke-width:0.8;"/>
   </g>
   <g id="text_14">
    <!-- prof1 -->
    <g transform="translate(576.483438 22.347476)scale(0.12 -0.12)">
     <defs>
      <path d="M 1159 525 
L 1159 -1331 
L 581 -1331 
L 581 3500 
L 1159 3500 
L 1159 2969 
Q 1341 3281 1617 3432 
Q 1894 3584 2278 3584 
Q 2916 3584 3314 3078 
Q 3713 2572 3713 1747 
Q 3713 922 3314 415 
Q 2916 -91 2278 -91 
Q 1894 -91 1617 61 
Q 1341 213 1159 525 
z
M 3116 1747 
Q 3116 2381 2855 2742 
Q 2594 3103 2138 3103 
Q 1681 3103 1420 2742 
Q 1159 2381 1159 1747 
Q 1159 1113 1420 752 
Q 1681 391 2138 391 
Q 2594 391 2855 752 
Q 3116 1113 3116 1747 
z
" id="DejaVuSans-70" transform="scale(0.015625)"/>
      <path d="M 2631 2963 
Q 2534 3019 2420 3045 
Q 2306 3072 2169 3072 
Q 1681 3072 1420 2755 
Q 1159 2438 1159 1844 
L 1159 0 
L 581 0 
L 581 3500 
L 1159 3500 
L 1159 2956 
Q 1341 3275 1631 3429 
Q 1922 3584 2338 3584 
Q 2397 3584 2469 3576 
Q 2541 3569 2628 3553 
L 2631 2963 
z
" id="DejaVuSans-72" transform="scale(0.015625)"/>
      <path d="M 1959 3097 
Q 1497 3097 1228 2736 
Q 959 2375 959 1747 
Q 959 1119 1226 758 
Q 1494 397 1959 397 
Q 2419 397 2687 759 
Q 2956 1122 2956 1747 
Q 2956 2369 2687 2733 
Q 2419 3097 1959 3097 
z
M 1959 3584 
Q 2709 3584 3137 3096 
Q 3566 2609 3566 1747 
Q 3566 888 3137 398 
Q 2709 -91 1959 -91 
Q 1206 -91 779 398 
Q 353 888 353 1747 
Q 353 2609 779 3096 
Q 1206 3584 1959 3584 
z
" id="DejaVuSans-6f" transform="scale(0.015625)"/>
      <path d="M 2375 4863 
L 2375 4384 
L 1825 4384 
Q 1516 4384 1395 4259 
Q 1275 4134 1275 3809 
L 1275 3500 
L 2222 3500 
L 2222 3053 
L 1275 3053 
L 1275 0 
L 697 0 
L 697 3053 
L 147 3053 
L 147 3500 
L 697 3500 
L 697 3744 
Q 697 4328 969 4595 
Q 1241 4863 1831 4863 
L 2375 4863 
z
" id="DejaVuSans-66" transform="scale(0.015625)"/>
     </defs>
     <use xlink:href="#DejaVuSans-70"/>
     <use x="63.476562" xlink:href="#DejaVuSans-72"/>
     <use x="102.339844" xlink:href="#DejaVuSans-6f"/>
     <use x="163.521484" xlink:href="#DejaVuSans-66"/>
     <use x="198.726562" xlink:href="#DejaVuSans-31"/>
    </g>
    <!-- Flight dist.: 100 m, Overlap: 10%, Pitch: 75 (fixed), FoV: 36, GSD: 1.6e-02 m -->
    <g transform="translate(358.197813 35.784851)scale(0.12 -0.12)">
     <defs>
      <path d="M 628 4666 
L 3309 4666 
L 3309 4134 
L 1259 4134 
L 1259 2759 
L 3109 2759 
L 3109 2228 
L 1259 2228 
L 1259 0 
L 628 0 
L 628 4666 
z
" id="DejaVuSans-46" transform="scale(0.015625)"/>
      <path d="M 603 4863 
L 1178 4863 
L 1178 0 
L 603 0 
L 603 4863 
z
" id="DejaVuSans-6c" transform="scale(0.015625)"/>
      <path d="M 603 3500 
L 1178 3500 
L 1178 0 
L 603 0 
L 603 3500 
z
M 603 4863 
L 1178 4863 
L 1178 4134 
L 603 4134 
L 603 4863 
z
" id="DejaVuSans-69" transform="scale(0.015625)"/>
      <path d="M 2906 1791 
Q 2906 2416 2648 2759 
Q 2391 3103 1925 3103 
Q 1463 3103 1205 2759 
Q 947 2416 947 1791 
Q 947 1169 1205 825 
Q 1463 481 1925 481 
Q 2391 481 2648 825 
Q 2906 1169 2906 1791 
z
M 3481 434 
Q 3481 -459 3084 -895 
Q 2688 -1331 1869 -1331 
Q 1566 -1331 1297 -1286 
Q 1028 -1241 775 -1147 
L 775 -588 
Q 1028 -725 1275 -790 
Q 1522 -856 1778 -856 
Q 2344 -856 2625 -561 
Q 2906 -266 2906 331 
L 2906 616 
Q 2728 306 2450 153 
Q 2172 0 1784 0 
Q 1141 0 747 490 
Q 353 981 353 1791 
Q 353 2603 747 3093 
Q 1141 3584 1784 3584 
Q 2172 3584 2450 3431 
Q 2728 3278 2906 2969 
L 2906 3500 
L 3481 3500 
L 3481 434 
z
" id="DejaVuSans-67" transform="scale(0.015625)"/>
      <path d="M 3513 2113 
L 3513 0 
L 2938 0 
L 2938 2094 
Q 2938 2591 2744 2837 
Q 2550 3084 2163 3084 
Q 1697 3084 1428 2787 
Q 1159 2491 1159 1978 
L 1159 0 
L 581 0 
L 581 4863 
L 1159 4863 
L 1159 2956 
Q 1366 3272 1645 3428 
Q 1925 3584 2291 3584 
Q 2894 3584 3203 3211 
Q 3513 2838 3513 2113 
z
" id="DejaVuSans-68" transform="scale(0.015625)"/>
      <path d="M 1172 4494 
L 1172 3500 
L 2356 3500 
L 2356 3053 
L 1172 3053 
L 1172 1153 
Q 1172 725 1289 603 
Q 1406 481 1766 481 
L 2356 481 
L 2356 0 
L 1766 0 
Q 1100 0 847 248 
Q 594 497 594 1153 
L 594 3053 
L 172 3053 
L 172 3500 
L 594 3500 
L 594 4494 
L 1172 4494 
z
" id="DejaVuSans-74" transform="scale(0.015625)"/>
      <path id="DejaVuSans-20" transform="scale(0.015625)"/>
      <path d="M 2906 2969 
L 2906 4863 
L 3481 4863 
L 3481 0 
L 2906 0 
L 2906 525 
Q 2725 213 2448 61 
Q 2172 -91 1784 -91 
Q 1150 -91 751 415 
Q 353 922 353 1747 
Q 353 2572 751 3078 
Q 1150 3584 1784 3584 
Q 2172 3584 2448 3432 
Q 2725 3281 2906 2969 
z
M 947 1747 
Q 947 1113 1208 752 
Q 1469 391 1925 391 
Q 2381 391 2643 752 
Q 2906 1113 2906 1747 
Q 2906 2381 2643 2742 
Q 2381 3103 1925 3103 
Q 1469 3103 1208 2742 
Q 947 2381 947 1747 
z
" id="DejaVuSans-64" transform="scale(0.015625)"/>
      <path d="M 2834 3397 
L 2834 2853 
Q 2591 2978 2328 3040 
Q 2066 3103 1784 3103 
Q 1356 3103 1142 2972 
Q 928 2841 928 2578 
Q 928 2378 1081 2264 
Q 1234 2150 1697 2047 
L 1894 2003 
Q 2506 1872 2764 1633 
Q 3022 1394 3022 966 
Q 3022 478 2636 193 
Q 2250 -91 1575 -91 
Q 1294 -91 989 -36 
Q 684 19 347 128 
L 347 722 
Q 666 556 975 473 
Q 1284 391 1588 391 
Q 1994 391 2212 530 
Q 2431 669 2431 922 
Q 2431 1156 2273 1281 
Q 2116 1406 1581 1522 
L 1381 1569 
Q 847 1681 609 1914 
Q 372 2147 372 2553 
Q 372 3047 722 3315 
Q 1072 3584 1716 3584 
Q 2034 3584 2315 3537 
Q 2597 3491 2834 3397 
z
" id="DejaVuSans-73" transform="scale(0.015625)"/>
      <path d="M 684 794 
L 1344 794 
L 1344 0 
L 684 0 
L 684 794 
z
" id="DejaVuSans-2e" transform="scale(0.015625)"/>
      <path d="M 750 794 
L 1409 794 
L 1409 0 
L 750 0 
L 750 794 
z
M 750 3309 
L 1409 3309 
L 1409 2516 
L 750 2516 
L 750 3309 
z
" id="DejaVuSans-3a" transform="scale(0.015625)"/>
      <path d="M 3328 2828 
Q 3544 3216 3844 3400 
Q 4144 3584 4550 3584 
Q 5097 3584 5394 3201 
Q 5691 2819 5691 2113 
L 5691 0 
L 5113 0 
L 5113 2094 
Q 5113 2597 4934 2840 
Q 4756 3084 4391 3084 
Q 3944 3084 3684 2787 
Q 3425 2491 3425 1978 
L 3425 0 
L 2847 0 
L 2847 2094 
Q 2847 2600 2669 2842 
Q 2491 3084 2119 3084 
Q 1678 3084 1418 2786 
Q 1159 2488 1159 1978 
L 1159 0 
L 581 0 
L 581 3500 
L 1159 3500 
L 1159 2956 
Q 1356 3278 1631 3431 
Q 1906 3584 2284 3584 
Q 2666 3584 2933 3390 
Q 3200 3197 3328 2828 
z
" id="DejaVuSans-6d" transform="scale(0.015625)"/>
      <path d="M 750 794 
L 1409 794 
L 1409 256 
L 897 -744 
L 494 -744 
L 750 256 
L 750 794 
z
" id="DejaVuSans-2c" transform="scale(0.015625)"/>
      <path d="M 2522 4238 
Q 1834 4238 1429 3725 
Q 1025 3213 1025 2328 
Q 1025 1447 1429 934 
Q 1834 422 2522 422 
Q 3209 422 3611 934 
Q 4013 1447 4013 2328 
Q 4013 3213 3611 3725 
Q 3209 4238 2522 4238 
z
M 2522 4750 
Q 3503 4750 4090 4092 
Q 4678 3434 4678 2328 
Q 4678 1225 4090 567 
Q 3503 -91 2522 -91 
Q 1538 -91 948 565 
Q 359 1222 359 2328 
Q 359 3434 948 4092 
Q 1538 4750 2522 4750 
z
" id="DejaVuSans-4f" transform="scale(0.015625)"/>
      <path d="M 191 3500 
L 800 3500 
L 1894 563 
L 2988 3500 
L 3597 3500 
L 2284 0 
L 1503 0 
L 191 3500 
z
" id="DejaVuSans-76" transform="scale(0.015625)"/>
      <path d="M 3597 1894 
L 3597 1613 
L 953 1613 
Q 991 1019 1311 708 
Q 1631 397 2203 397 
Q 2534 397 2845 478 
Q 3156 559 3463 722 
L 3463 178 
Q 3153 47 2828 -22 
Q 2503 -91 2169 -91 
Q 1331 -91 842 396 
Q 353 884 353 1716 
Q 353 2575 817 3079 
Q 1281 3584 2069 3584 
Q 2775 3584 3186 3129 
Q 3597 2675 3597 1894 
z
M 3022 2063 
Q 3016 2534 2758 2815 
Q 2500 3097 2075 3097 
Q 1594 3097 1305 2825 
Q 1016 2553 972 2059 
L 3022 2063 
z
" id="DejaVuSans-65" transform="scale(0.015625)"/>
      <path d="M 2194 1759 
Q 1497 1759 1228 1600 
Q 959 1441 959 1056 
Q 959 750 1161 570 
Q 1363 391 1709 391 
Q 2188 391 2477 730 
Q 2766 1069 2766 1631 
L 2766 1759 
L 2194 1759 
z
M 3341 1997 
L 3341 0 
L 2766 0 
L 2766 531 
Q 2569 213 2275 61 
Q 1981 -91 1556 -91 
Q 1019 -91 701 211 
Q 384 513 384 1019 
Q 384 1609 779 1909 
Q 1175 2209 1959 2209 
L 2766 2209 
L 2766 2266 
Q 2766 2663 2505 2880 
Q 2244 3097 1772 3097 
Q 1472 3097 1187 3025 
Q 903 2953 641 2809 
L 641 3341 
Q 956 3463 1253 3523 
Q 1550 3584 1831 3584 
Q 2591 3584 2966 3190 
Q 3341 2797 3341 1997 
z
" id="DejaVuSans-61" transform="scale(0.015625)"/>
      <path d="M 4653 2053 
Q 4381 2053 4226 1822 
Q 4072 1591 4072 1178 
Q 4072 772 4226 539 
Q 4381 306 4653 306 
Q 4919 306 5073 539 
Q 5228 772 5228 1178 
Q 5228 1588 5073 1820 
Q 4919 2053 4653 2053 
z
M 4653 2450 
Q 5147 2450 5437 2106 
Q 5728 1763 5728 1178 
Q 5728 594 5436 251 
Q 5144 -91 4653 -91 
Q 4153 -91 3862 251 
Q 3572 594 3572 1178 
Q 3572 1766 3864 2108 
Q 4156 2450 4653 2450 
z
M 1428 4353 
Q 1159 4353 1004 4120 
Q 850 3888 850 3481 
Q 850 3069 1003 2837 
Q 1156 2606 1428 2606 
Q 1700 2606 1854 2837 
Q 2009 3069 2009 3481 
Q 2009 3884 1853 4118 
Q 1697 4353 1428 4353 
z
M 4250 4750 
L 4750 4750 
L 1831 -91 
L 1331 -91 
L 4250 4750 
z
M 1428 4750 
Q 1922 4750 2215 4408 
Q 2509 4066 2509 3481 
Q 2509 2891 2217 2550 
Q 1925 2209 1428 2209 
Q 931 2209 642 2551 
Q 353 2894 353 3481 
Q 353 4063 643 4406 
Q 934 4750 1428 4750 
z
" id="DejaVuSans-25" transform="scale(0.015625)"/>
      <path d="M 1259 4147 
L 1259 2394 
L 2053 2394 
Q 2494 2394 2734 2622 
Q 2975 2850 2975 3272 
Q 2975 3691 2734 3919 
Q 2494 4147 2053 4147 
L 1259 4147 
z
M 628 4666 
L 2053 4666 
Q 2838 4666 3239 4311 
Q 3641 3956 3641 3272 
Q 3641 2581 3239 2228 
Q 2838 1875 2053 1875 
L 1259 1875 
L 1259 0 
L 628 0 
L 628 4666 
z
" id="DejaVuSans-50" transform="scale(0.015625)"/>
      <path d="M 3122 3366 
L 3122 2828 
Q 2878 2963 2633 3030 
Q 2388 3097 2138 3097 
Q 1578 3097 1268 2742 
Q 959 2388 959 1747 
Q 959 1106 1268 751 
Q 1578 397 2138 397 
Q 2388 397 2633 464 
Q 2878 531 3122 666 
L 3122 134 
Q 2881 22 2623 -34 
Q 2366 -91 2075 -91 
Q 1284 -91 818 406 
Q 353 903 353 1747 
Q 353 2603 823 3093 
Q 1294 3584 2113 3584 
Q 2378 3584 2631 3529 
Q 2884 3475 3122 3366 
z
" id="DejaVuSans-63" transform="scale(0.015625)"/>
      <path d="M 525 4666 
L 3525 4666 
L 3525 4397 
L 1831 0 
L 1172 0 
L 2766 4134 
L 525 4134 
L 525 4666 
z
" id="DejaVuSans-37" transform="scale(0.015625)"/>
      <path d="M 691 4666 
L 3169 4666 
L 3169 4134 
L 1269 4134 
L 1269 2991 
Q 1406 3038 1543 3061 
Q 1681 3084 1819 3084 
Q 2600 3084 3056 2656 
Q 3513 2228 3513 1497 
Q 3513 744 3044 326 
Q 2575 -91 1722 -91 
Q 1428 -91 1123 -41 
Q 819 9 494 109 
L 494 744 
Q 775 591 1075 516 
Q 1375 441 1709 441 
Q 2250 441 2565 725 
Q 2881 1009 2881 1497 
Q 2881 1984 2565 2268 
Q 2250 2553 1709 2553 
Q 1456 2553 1204 2497 
Q 953 2441 691 2322 
L 691 4666 
z
" id="DejaVuSans-35" transform="scale(0.015625)"/>
      <path d="M 1600 4347 
Q 1350 4347 1178 4173 
Q 1006 4000 1006 3750 
Q 1006 3503 1178 3333 
Q 1350 3163 1600 3163 
Q 1850 3163 2022 3333 
Q 2194 3503 2194 3750 
Q 2194 3997 2020 4172 
Q 1847 4347 1600 4347 
z
M 1600 4750 
Q 1800 4750 1984 4673 
Q 2169 4597 2303 4453 
Q 2447 4313 2519 4134 
Q 2591 3956 2591 3750 
Q 2591 3338 2302 3052 
Q 2013 2766 1594 2766 
Q 1172 2766 890 3047 
Q 609 3328 609 3750 
Q 609 4169 896 4459 
Q 1184 4750 1600 4750 
z
" id="DejaVuSans-b0" transform="scale(0.015625)"/>
      <path d="M 1984 4856 
Q 1566 4138 1362 3434 
Q 1159 2731 1159 2009 
Q 1159 1288 1364 580 
Q 1569 -128 1984 -844 
L 1484 -844 
Q 1016 -109 783 600 
Q 550 1309 550 2009 
Q 550 2706 781 3412 
Q 1013 4119 1484 4856 
L 1984 4856 
z
" id="DejaVuSans-28" transform="scale(0.015625)"/>
      <path d="M 3513 3500 
L 2247 1797 
L 3578 0 
L 2900 0 
L 1881 1375 
L 863 0 
L 184 0 
L 1544 1831 
L 300 3500 
L 978 3500 
L 1906 2253 
L 2834 3500 
L 3513 3500 
z
" id="DejaVuSans-78" transform="scale(0.015625)"/>
      <path d="M 513 4856 
L 1013 4856 
Q 1481 4119 1714 3412 
Q 1947 2706 1947 2009 
Q 1947 1309 1714 600 
Q 1481 -109 1013 -844 
L 513 -844 
Q 928 -128 1133 580 
Q 1338 1288 1338 2009 
Q 1338 2731 1133 3434 
Q 928 4138 513 4856 
z
" id="DejaVuSans-29" transform="scale(0.015625)"/>
      <path d="M 1831 0 
L 50 4666 
L 709 4666 
L 2188 738 
L 3669 4666 
L 4325 4666 
L 2547 0 
L 1831 0 
z
" id="DejaVuSans-56" transform="scale(0.015625)"/>
      <path d="M 2597 2516 
Q 3050 2419 3304 2112 
Q 3559 1806 3559 1356 
Q 3559 666 3084 287 
Q 2609 -91 1734 -91 
Q 1441 -91 1130 -33 
Q 819 25 488 141 
L 488 750 
Q 750 597 1062 519 
Q 1375 441 1716 441 
Q 2309 441 2620 675 
Q 2931 909 2931 1356 
Q 2931 1769 2642 2001 
Q 2353 2234 1838 2234 
L 1294 2234 
L 1294 2753 
L 1863 2753 
Q 2328 2753 2575 2939 
Q 2822 3125 2822 3475 
Q 2822 3834 2567 4026 
Q 2313 4219 1838 4219 
Q 1578 4219 1281 4162 
Q 984 4106 628 3988 
L 628 4550 
Q 988 4650 1302 4700 
Q 1616 4750 1894 4750 
Q 2613 4750 3031 4423 
Q 3450 4097 3450 3541 
Q 3450 3153 3228 2886 
Q 3006 2619 2597 2516 
z
" id="DejaVuSans-33" transform="scale(0.015625)"/>
      <path d="M 3809 666 
L 3809 1919 
L 2778 1919 
L 2778 2438 
L 4434 2438 
L 4434 434 
Q 4069 175 3628 42 
Q 3188 -91 2688 -91 
Q 1594 -91 976 548 
Q 359 1188 359 2328 
Q 359 3472 976 4111 
Q 1594 4750 2688 4750 
Q 3144 4750 3555 4637 
Q 3966 4525 4313 4306 
L 4313 3634 
Q 3963 3931 3569 4081 
Q 3175 4231 2741 4231 
Q 1884 4231 1454 3753 
Q 1025 3275 1025 2328 
Q 1025 1384 1454 906 
Q 1884 428 2741 428 
Q 3075 428 3337 486 
Q 3600 544 3809 666 
z
" id="DejaVuSans-47" transform="scale(0.015625)"/>
      <path d="M 3425 4513 
L 3425 3897 
Q 3066 4069 2747 4153 
Q 2428 4238 2131 4238 
Q 1616 4238 1336 4038 
Q 1056 3838 1056 3469 
Q 1056 3159 1242 3001 
Q 1428 2844 1947 2747 
L 2328 2669 
Q 3034 2534 3370 2195 
Q 3706 1856 3706 1288 
Q 3706 609 3251 259 
Q 2797 -91 1919 -91 
Q 1588 -91 1214 -16 
Q 841 59 441 206 
L 441 856 
Q 825 641 1194 531 
Q 1563 422 1919 422 
Q 2459 422 2753 634 
Q 3047 847 3047 1241 
Q 3047 1584 2836 1778 
Q 2625 1972 2144 2069 
L 1759 2144 
Q 1053 2284 737 2584 
Q 422 2884 422 3419 
Q 422 4038 858 4394 
Q 1294 4750 2059 4750 
Q 2388 4750 2728 4690 
Q 3069 4631 3425 4513 
z
" id="DejaVuSans-53" transform="scale(0.015625)"/>
      <path d="M 1259 4147 
L 1259 519 
L 2022 519 
Q 2988 519 3436 956 
Q 3884 1394 3884 2338 
Q 3884 3275 3436 3711 
Q 2988 4147 2022 4147 
L 1259 4147 
z
M 628 4666 
L 1925 4666 
Q 3281 4666 3915 4102 
Q 4550 3538 4550 2338 
Q 4550 1131 3912 565 
Q 3275 0 1925 0 
L 628 0 
L 628 4666 
z
" id="DejaVuSans-44" transform="scale(0.015625)"/>
      <path d="M 313 2009 
L 1997 2009 
L 1997 1497 
L 313 1497 
L 313 2009 
z
" id="DejaVuSans-2d" transform="scale(0.015625)"/>
     </defs>
     <use xlink:href="#DejaVuSans-46"/>
     <use x="57.519531" xlink:href="#DejaVuSans-6c"/>
     <use x="85.302734" xlink:href="#DejaVuSans-69"/>
     <use x="113.085938" xlink:href="#DejaVuSans-67"/>
     <use x="176.5625" xlink:href="#DejaVuSans-68"/>
     <use x="239.941406" xlink:href="#DejaVuSans-74"/>
     <use x="279.150391" xlink:href="#DejaVuSans-20"/>
     <use x="310.9375" xlink:href="#DejaVuSans-64"/>
     <use x="374.414062" xlink:href="#DejaVuSans-69"/>
     <use x="402.197266" xlink:href="#DejaVuSans-73"/>
     <use x="454.296875" xlink:href="#DejaVuSans-74"/>
     <use x="493.505859" xlink:href="#DejaVuSans-2e"/>
     <use x="525.292969" xlink:href="#DejaVuSans-3a"/>
     <use x="558.984375" xlink:href="#DejaVuSans-20"/>
     <use x="590.771484" xlink:href="#DejaVuSans-31"/>
     <use x="654.394531" xlink:href="#DejaVuSans-30"/>
     <use x="718.017578" xlink:href="#DejaVuSans-30"/>
     <use x="781.640625" xlink:href="#DejaVuSans-20"/>
     <use x="813.427734" xlink:href="#DejaVuSans-6d"/>
     <use x="910.839844" xlink:href="#DejaVuSans-2c"/>
     <use x="942.626953" xlink:href="#DejaVuSans-20"/>
     <use x="974.414062" xlink:href="#DejaVuSans-4f"/>
     <use x="1053.125" xlink:href="#DejaVuSans-76"/>
     <use x="1112.304688" xlink:href="#DejaVuSans-65"/>
     <use x="1173.828125" xlink:href="#DejaVuSans-72"/>
     <use x="1214.941406" xlink:href="#DejaVuSans-6c"/>
     <use x="1242.724609" xlink:href="#DejaVuSans-61"/>
     <use x="1304.003906" xlink:href="#DejaVuSans-70"/>
     <use x="1367.480469" xlink:href="#DejaVuSans-3a"/>
     <use x="1401.171875" xlink:href="#DejaVuSans-20"/>
     <use x="1432.958984" xlink:href="#DejaVuSans-31"/>
     <use x="1496.582031" xlink:href="#DejaVuSans-30"/>
     <use x="1560.205078" xlink:href="#DejaVuSans-25"/>
     <use x="1655.224609" xlink:href="#DejaVuSans-2c"/>
     <use x="1687.011719" xlink:href="#DejaVuSans-20"/>
     <use x="1718.798828" xlink:href="#DejaVuSans-50"/>
     <use x="1776.851562" xlink:href="#DejaVuSans-69"/>
     <use x="1804.634766" xlink:href="#DejaVuSans-74"/>
     <use x="1843.84375" xlink:href="#DejaVuSans-63"/>
     <use x="1898.824219" xlink:href="#DejaVuSans-68"/>
     <use x="1962.203125" xlink:href="#DejaVuSans-3a"/>
     <use x="1995.894531" xlink:href="#DejaVuSans-20"/>
     <use x="2027.681641" xlink:href="#DejaVuSans-37"/>
     <use x="2091.304688" xlink:href="#DejaVuSans-35"/>
     <use x="2154.927734" xlink:href="#DejaVuSans-b0"/>
     <use x="2204.927734" xlink:href="#DejaVuSans-20"/>
     <use x="2236.714844" xlink:href="#DejaVuSans-28"/>
     <use x="2275.728516" xlink:href="#DejaVuSans-66"/>
     <use x="2310.933594" xlink:href="#DejaVuSans-69"/>
     <use x="2338.716797" xlink:href="#DejaVuSans-78"/>
     <use x="2394.771484" xlink:href="#DejaVuSans-65"/>
     <use x="2456.294922" xlink:href="#DejaVuSans-64"/>
     <use x="2519.771484" xlink:href="#DejaVuSans-29"/>
     <use x="2558.785156" xlink:href="#DejaVuSans-2c"/>
     <use x="2590.572266" xlink:href="#DejaVuSans-20"/>
     <use x="2622.359375" xlink:href="#DejaVuSans-46"/>
     <use x="2676.253906" xlink:href="#DejaVuSans-6f"/>
     <use x="2737.435547" xlink:href="#DejaVuSans-56"/>
     <use x="2797.71875" xlink:href="#DejaVuSans-3a"/>
     <use x="2831.410156" xlink:href="#DejaVuSans-20"/>
     <use x="2863.197266" xlink:href="#DejaVuSans-33"/>
     <use x="2926.820312" xlink:href="#DejaVuSans-36"/>
     <use x="2990.443359" xlink:href="#DejaVuSans-b0"/>
     <use x="3040.443359" xlink:href="#DejaVuSans-2c"/>
     <use x="3072.230469" xlink:href="#DejaVuSans-20"/>
     <use x="3104.017578" xlink:href="#DejaVuSans-47"/>
     <use x="3181.507812" xlink:href="#DejaVuSans-53"/>
     <use x="3244.984375" xlink:href="#DejaVuSans-44"/>
     <use x="3321.986328" xlink:href="#DejaVuSans-3a"/>
     <use x="3355.677734" xlink:href="#DejaVuSans-20"/>
     <use x="3387.464844" xlink:href="#DejaVuSans-31"/>
     <use x="3451.087891" xlink:href="#DejaVuSans-2e"/>
     <use x="3482.875" xlink:href="#DejaVuSans-36"/>
     <use x="3546.498047" xlink:href="#DejaVuSans-65"/>
     <use x="3608.021484" xlink:href="#DejaVuSans-2d"/>
     <use x="3644.105469" xlink:href="#DejaVuSans-30"/>
     <use x="3707.728516" xlink:href="#DejaVuSans-32"/>
     <use x="3771.351562" xlink:href="#DejaVuSans-20"/>
     <use x="3803.138672" xlink:href="#DejaVuSans-6d"/>
    </g>
    <!-- 2 images -->
    <g transform="translate(564.685938 49.222226)scale(0.12 -0.12)">
     <use xlink:href="#DejaVuSans-32"/>
     <use x="63.623047" xlink:href="#DejaVuSans-20"/>
     <use x="95.410156" xlink:href="#DejaVuSans-69"/>
     <use x="123.193359" xlink:href="#DejaVuSans-6d"/>
     <use x="220.605469" xlink:href="#DejaVuSans-61"/>
     <use x="281.884766" xlink:href="#DejaVuSans-67"/>
     <use x="345.361328" xlink:href="#DejaVuSans-65"/>
     <use x="406.884766" xlink:href="#DejaVuSans-73"/>
    </g>
   </g>
   <g id="legend_1">
    <g id="patch_7">
     <path d="M 50.25 92.578476 
L 135.815625 92.578476 
Q 137.815625 92.578476 137.815625 90.578476 
L 137.815625 62.222226 
Q 137.815625 60.222226 135.815625 60.222226 
L 50.25 60.222226 
Q 48.25 60.222226 48.25 62.222226 
L 48.25 90.578476 
Q 48.25 92.578476 50.25 92.578476 
z
" style="fill:#ffffff;opacity:0.8;stroke:#cccccc;stroke-linejoin:miter;"/>
    </g>
    <g id="patch_8">
     <path d="M 52.25 71.820664 
L 72.25 71.820664 
L 72.25 64.820664 
L 52.25 64.820664 
z
" style="fill:#ff0000;stroke:#ff0000;stroke-linejoin:miter;"/>
    </g>
    <g id="text_15">
     <!-- forwards -->
     <g transform="translate(80.25 71.820664)scale(0.1 -0.1)">
      <defs>
       <path d="M 269 3500 
L 844 3500 
L 1563 769 
L 2278 3500 
L 2956 3500 
L 3675 769 
L 4391 3500 
L 4966 3500 
L 4050 0 
L 3372 0 
L 2619 2869 
L 1863 0 
L 1184 0 
L 269 3500 
z
" id="DejaVuSans-77" transform="scale(0.015625)"/>
      </defs>
      <use xlink:href="#DejaVuSans-66"/>
      <use x="35.205078" xlink:href="#DejaVuSans-6f"/>
      <use x="96.386719" xlink:href="#DejaVuSans-72"/>
      <use x="137.5" xlink:href="#DejaVuSans-77"/>
      <use x="219.287109" xlink:href="#DejaVuSans-61"/>
      <use x="280.566406" xlink:href="#DejaVuSans-72"/>
      <use x="319.929688" xlink:href="#DejaVuSans-64"/>
      <use x="383.40625" xlink:href="#DejaVuSans-73"/>
     </g>
    </g>
    <g id="patch_9">
     <path d="M 52.25 86.498789 
L 72.25 86.498789 
L 72.25 79.498789 
L 52.25 79.498789 
z
" style="fill:#008000;stroke:#008000;stroke-linejoin:miter;"/>
    </g>
    <g id="text_16">
     <!-- backwards -->
     <g transform="translate(80.25 86.498789)scale(0.1 -0.1)">
      <defs>
       <path d="M 3116 1747 
Q 3116 2381 2855 2742 
Q 2594 3103 2138 3103 
Q 1681 3103 1420 2742 
Q 1159 2381 1159 1747 
Q 1159 1113 1420 752 
Q 1681 391 2138 391 
Q 2594 391 2855 752 
Q 3116 1113 3116 1747 
z
M 1159 2969 
Q 1341 3281 1617 3432 
Q 1894 3584 2278 3584 
Q 2916 3584 3314 3078 
Q 3713 2572 3713 1747 
Q 3713 922 3314 415 
Q 2916 -91 2278 -91 
Q 1894 -91 1617 61 
Q 1341 213 1159 525 
L 1159 0 
L 581 0 
L 581 4863 
L 1159 4863 
L 1159 2969 
z
" id="DejaVuSans-62" transform="scale(0.015625)"/>
       <path d="M 581 4863 
L 1159 4863 
L 1159 1991 
L 2875 3500 
L 3609 3500 
L 1753 1863 
L 3688 0 
L 2938 0 
L 1159 1709 
L 1159 0 
L 581 0 
L 581 4863 
z
" id="DejaVuSans-6b" transform="scale(0.015625)"/>
      </defs>
      <use xlink:href="#DejaVuSans-62"/>
      <use x="63.476562" xlink:href="#DejaVuSans-61"/>
      <use x="124.755859" xlink:href="#DejaVuSans-63"/>
      <use x="179.736328" xlink:href="#DejaVuSans-6b"/>
      <use x="237.646484" xlink:href="#DejaVuSans-77"/>
      <use x="319.433594" xlink:href="#DejaVuSans-61"/>
      <use x="380.712891" xlink:href="#DejaVuSans-72"/>
      <use x="420.076172" xlink:href="#DejaVuSans-64"/>
      <use x="483.552734" xlink:href="#DejaVuSans-73"/>
     </g>
    </g>
   </g>
  </g>
 </g>
 <defs>
  <clipPath id="pbbf21c2466">
   <rect height="183.121011" width="1097.95" x="43.25" y="55.222226"/>
  </clipPath>
 </defs>
</svg>
